<?xml version="1.0"?>
<svg xmlns="http://www.w3.org/2000/svg" viewBox="0 0 2367.55 829.84">
  <defs>
    
  </defs>
  <g class="cls-2">
    <g id="Layer_2" data-name="Layer 2">
      <g id="Capa_1" data-name="Capa 1">
        <g class="cls-3">
          <g>
            <g>
              <path class="cls-1" d="M802.61,829.84h-2.18v-315.82c0-23.42-19.05-42.47-42.47-42.47h-402.94c-24.62,0-44.65-20.03-44.65-44.65v-142.51h2.18v142.51c0,23.42,19.05,42.47,42.47,42.47h402.94c24.62,0,44.65,20.03,44.65,44.65v315.82Z"></path>
              <path class="cls-1" d="M303.27,284.8c0-4.52,3.67-8.19,8.19-8.19s8.19,3.67,8.19,8.19-3.67,8.19-8.19,8.19-8.19-3.67-8.19-8.19Z"></path>
            </g>
            <g>
              <path class="cls-1" d="M548.87,584.81H0v-2.18h548.87c23.42,0,42.47-19.05,42.47-42.47V101.44h2.18v438.72c0,24.62-20.03,44.65-44.65,44.65Z"></path>
              <path class="cls-1" d="M584.24,101.85c0-4.52,3.67-8.19,8.19-8.19s8.19,3.67,8.19,8.19-3.67,8.19-8.19,8.19-8.19-3.67-8.19-8.19Z"></path>
            </g>
            <g>
              <path class="cls-1" d="M1318.81,829.84h-2.18v-202.56c0-24.62,20.03-44.65,44.65-44.65h259.19c23.42,0,42.47-19.05,42.47-42.47v-157.91c0-23.42-19.05-42.47-42.47-42.47h-657.77c-24.62,0-44.65-20.03-44.65-44.65v-110.92h2.18v110.92c0,23.42,19.05,42.47,42.47,42.47h657.77c24.62,0,44.65,20.03,44.65,44.65v157.91c0,24.62-20.03,44.65-44.65,44.65h-259.19c-23.42,0-42.47,19.05-42.47,42.47v202.56Z"></path>
              <path class="cls-1" d="M910.95,184.61c0-4.52,3.67-8.19,8.19-8.19s8.19,3.67,8.19,8.19-3.67,8.19-8.19,8.19-8.19-3.67-8.19-8.19Z"></path>
            </g>
            <g>
              <path class="cls-1" d="M1103.18,829.84h-2.18v-337.6c0-24.62,20.03-44.65,44.65-44.65h287.5c23.42,0,42.47-19.05,42.47-42.47V46.98h2.18v358.13c0,24.62-20.03,44.65-44.65,44.65h-287.5c-23.42,0-42.47,19.05-42.47,42.47v337.6Z"></path>
              <path class="cls-1" d="M1468.53,47.39c0-4.52,3.67-8.19,8.19-8.19s8.19,3.67,8.19,8.19-3.67,8.19-8.19,8.19-8.19-3.67-8.19-8.19Z"></path>
            </g>
            <g>
              <path class="cls-1" d="M2367.55,435.61h-457.39c-24.62,0-44.65-20.03-44.65-44.65v-232.9h2.18v232.9c0,23.42,19.05,42.47,42.47,42.47h457.39v2.18Z"></path>
              <path class="cls-1" d="M1858.4,158.47c0-4.52,3.67-8.19,8.19-8.19s8.19,3.67,8.19,8.19-3.67,8.19-8.19,8.19-8.19-3.67-8.19-8.19Z"></path>
            </g>
            <g>
              <path class="cls-1" d="M1787.09,829.84h-2.18v-150.29c0-24.62,20.03-44.65,44.65-44.65h265.72c23.42,0,42.47-19.05,42.47-42.47V25.2h2.18v567.23c0,24.62-20.03,44.65-44.65,44.65h-265.72c-23.42,0-42.47,19.05-42.47,42.47v150.29Z"></path>
              <path class="cls-1" d="M2130.66,25.61c0-4.52,3.67-8.19,8.19-8.19s8.19,3.67,8.19,8.19-3.67,8.19-8.19,8.19-8.19-3.67-8.19-8.19Z"></path>
            </g>
            <g>
              <path class="cls-1" d="M2367.55,543.42h-320.17c-24.62,0-44.65-20.03-44.65-44.65v-240.52h2.18v240.52c0,23.42,19.05,42.47,42.47,42.47h320.17v2.18Z"></path>
              <path class="cls-1" d="M1995.62,258.67c0-4.52,3.67-8.19,8.19-8.19s8.19,3.67,8.19,8.19-3.67,8.19-8.19,8.19-8.19-3.67-8.19-8.19Z"></path>
            </g>
            <g>
              <path class="cls-1" d="M974.68,829.84h-2.18v-283.15c0-24.62,20.03-44.65,44.65-44.65h694.8c23.42,0,42.47-19.05,42.47-42.47v-229.63h2.18v229.63c0,24.62-20.03,44.65-44.65,44.65h-694.8c-23.42,0-42.47,19.05-42.47,42.47v283.15Z"></path>
              <path class="cls-1" d="M1747.32,230.35c0-4.52,3.67-8.19,8.19-8.19s8.19,3.67,8.19,8.19-3.67,8.19-8.19,8.19-8.19-3.67-8.19-8.19Z"></path>
            </g>
            <g>
              <path class="cls-1" d="M1567.11,829.84h-2.18v-159c0-23.42-19.05-42.47-42.47-42.47h-187.31c-24.62,0-44.65-20.03-44.65-44.65V112.33h2.18v471.39c0,23.42,19.05,42.47,42.47,42.47h187.31c24.62,0,44.65,20.03,44.65,44.65v159Z"></path>
              <path class="cls-1" d="M1283.4,112.74c0-4.52,3.67-8.19,8.19-8.19s8.19,3.67,8.19,8.19-3.67,8.19-8.19,8.19-8.19-3.67-8.19-8.19Z"></path>
            </g>
            <g>
              <path class="cls-1" d="M473.73,829.84h-2.18v-376.8c0-24.62,20.03-44.65,44.65-44.65h483.53c23.42,0,42.47-19.05,42.47-42.47V7.78h2.18v358.13c0,24.62-20.03,44.65-44.65,44.65h-483.53c-23.42,0-42.47,19.05-42.47,42.47v376.8Z"></path>
              <path class="cls-1" d="M1035.1,8.19c0-4.52,3.67-8.19,8.19-8.19s8.19,3.67,8.19,8.19-3.67,8.19-8.19,8.19-8.19-3.67-8.19-8.19Z"></path>
            </g>
            <g>
              <path class="cls-1" d="M238.5,829.84h-2.18v-139.4c0-24.62,20.03-44.65,44.65-44.65h509.66c23.42,0,42.47-19.05,42.47-42.47V101.44h2.18v501.89c0,24.62-20.03,44.65-44.65,44.65h-509.66c-23.42,0-42.47,19.05-42.47,42.47v139.4Z"></path>
              <path class="cls-1" d="M826.01,101.85c0-4.52,3.67-8.19,8.19-8.19s8.19,3.67,8.19,8.19-3.67,8.19-8.19,8.19-8.19-3.67-8.19-8.19Z"></path>
            </g>
            <g>
              <path class="cls-1" d="M350.67,527.09H0v-2.18h350.67c23.42,0,42.47-19.05,42.47-42.47V158.07h2.18v324.37c0,24.62-20.03,44.65-44.65,44.65Z"></path>
              <path class="cls-1" d="M386.04,158.47c0-4.52,3.67-8.19,8.19-8.19s8.19,3.67,8.19,8.19-3.67,8.19-8.19,8.19-8.19-3.67-8.19-8.19Z"></path>
            </g>
          </g>
        </g>
      </g>
    </g>
  </g>
</svg>