<?xml version="1.0"?>
<svg id="Layer_2" data-name="Layer 2" xmlns="http://www.w3.org/2000/svg" viewBox="0 0 754.56 754.49">
  <defs>
    
  </defs>
  <g id="Capa_1" data-name="Capa 1">
    <g>
      <polygon class="cls-2" points="409.4 100.27 336.33 173.34 336.33 0 409.4 0 409.4 100.27"></polygon>
      <path class="cls-2" d="M509.56,368.51c-11.25,0-20.42-9.16-20.42-20.42s9.16-20.42,20.42-20.42,20.42,9.16,20.42,20.42-9.16,20.42-20.42,20.42Z"></path>
      <polygon class="cls-2" points="754.55 0 754.55 392.71 647.32 285.49 647.32 0 754.55 0"></polygon>
      <path class="cls-2" d="M342.1,424.89c-11.25,0-20.42-9.16-20.42-20.42s9.16-20.42,20.42-20.42,20.47,9.16,20.47,20.42-9.16,20.42-20.47,20.42Z"></path>
      <polygon class="cls-1" points="383.55 620.12 249.12 754.49 55.65 754.49 119.5 690.64 132.73 677.41 135.96 674.18 138.73 671.47 138.73 671.41 213.21 596.93 286.79 523.35 383.55 620.12"></polygon>
      <path class="cls-2" d="M754.55,456.68v107.73l-157.67-157.67-105.59,105.59v-52.93h-81.55v122.89l-122.95-122.89-105.59,105.59v-52.99h-93.71v146.65L.06,746.06v-187.54l133.86-133.86h162.48c7.81,17.53,25.39,29.75,45.7,29.75,27.54,0,49.94-22.4,49.94-49.94s-22.4-49.94-49.94-49.94c-18.38,0-34.5,10.01-43.15,24.88H115.2L.06,494.57v-158.29h336.27v-98.97l95.69-95.63,54.92,54.92v107c-16.23,8.26-27.32,25.11-27.32,44.51,0,27.54,22.4,49.94,49.94,49.94s49.94-22.4,49.94-49.94c0-19.4-11.09-36.25-27.32-44.51v-125.72l-77.54-77.54V0h147.44v304.21l152.47,152.47Z"></path>
      <path class="cls-1" d="M596.86,493.78l-120.5,120.5-31.91,31.96-45.23,45.26-63.01,62.98h418.34v-103.03l-157.7-157.67ZM585.57,683.18h-37.51v-37.51h37.51v37.51ZM585.57,628.72h-37.51v-37.51h37.51v37.51ZM645.69,683.18h-37.51v-37.51h37.51v37.51ZM645.69,628.72h-37.51v-37.51h37.51v37.51Z"></path>
      <polygon class="cls-1" points="291.09 0 291.09 291.03 .06 291.03 108.64 182.44 0 73.75 73.75 0 182.44 108.64 291.09 0"></polygon>
    </g>
  </g>
</svg>