<?xml version="1.0"?>
<svg id="Layer_2" data-name="Layer 2" xmlns="http://www.w3.org/2000/svg" viewBox="0 0 709.77 289.98">
  <defs>
    
  </defs>
  <g id="Capa_1" data-name="Capa 1">
    <g>
      <g>
        <path class="cls-2" d="M402.25,52.8c22.53,3.99,32.93,21.84,30.68,38.31-2.08,13.87-6.07,24.09-16.99,32.76-11.27,8.49-28.08,7.8-41.6,7.63-14.21-.35-35.53-4.51-35.53-4.51l7.28-35.88s18.37,2.77,32.07,3.64c6.93.35,14.91,1.91,16.29-4.68.52-2.43.69-7.11-9.01-8.32,0,0-.35-.17-11.27-1.56-10.75-1.56-15.95-2.77-15.95-2.77-17.68-3.64-24.79-21.32-23.05-34.67,1.91-14.04,5.72-24.27,16.81-32.76,11.09-8.67,24.61-9.36,37.79-8.84,13,.69,37.09,4.85,37.09,4.85l-7.8,34.67s-20.97-2.6-29.81-3.29c-11.09-.69-15.08-1.56-16.47,3.47-1.04,3.81,1.39,6.41,3.64,7.28,0,0,1.91.87,13.87,2.6,6.59,1.21,11.96,2.08,11.96,2.08Z"></path>
        <path class="cls-2" d="M567.78,65.11v1.56c0,17.68-5.2,32.93-17.85,45.59-12.65,12.48-27.73,18.89-45.59,18.89s-32.93-6.41-45.59-18.89c-12.65-12.65-18.89-27.91-18.89-45.59s6.24-33.11,18.89-45.59c12.65-12.65,27.91-19.07,45.59-19.07s32.93,6.41,45.59,19.07l-27.73,25.31c-5.2-5.2-10.4-6.76-17.85-6.76s-13.87,2.6-19.24,7.97c-5.2,5.2-7.8,11.61-7.8,19.07s2.6,13.87,7.8,19.24c5.37,5.2,11.79,7.8,19.24,7.8s13.87-2.6,19.07-7.8c1.39-1.39,2.6-2.77,3.64-4.33h-20.8v-23.75h61.53v7.28Z"></path>
        <path class="cls-2" d="M675.08,148.83l-30.16-40.04c-2.43.17-5.03.52-7.63.52h-22.01v17.16h-37.61V6.18h59.63c14.21,0,26.69,4.33,36.75,14.39,10.05,10.05,15.25,22.53,15.25,36.75,0,12.48-3.99,23.4-11.61,32.59l27.39,36.4-29.99,22.53ZM637.29,71.7c7.97,0,14.21-6.59,14.21-14.39s-6.24-14.21-14.21-14.21h-22.01v28.6h22.01Z"></path>
      </g>
      <g>
        <rect class="cls-3" x="562.45" y="70.38" width="2.54" height="1.44"></rect>
        <rect class="cls-3" x="577.02" y="70.38" width="2.54" height="1.44"></rect>
        <g>
          <polygon class="cls-1" points="157.35 38.54 129.26 66.62 129.26 0 157.35 0 157.35 38.54"></polygon>
          <path class="cls-1" d="M195.84,141.63c-4.33,0-7.85-3.52-7.85-7.85s3.52-7.85,7.85-7.85,7.85,3.52,7.85,7.85-3.52,7.85-7.85,7.85Z"></path>
          <polygon class="cls-1" points="290 0 290 150.94 248.79 109.72 248.79 0 290 0"></polygon>
          <path class="cls-1" d="M131.48,163.3c-4.33,0-7.85-3.52-7.85-7.85s3.52-7.85,7.85-7.85,7.87,3.52,7.87,7.85-3.52,7.85-7.87,7.85Z"></path>
          <polygon class="cls-2" points="147.41 238.34 95.75 289.98 21.39 289.98 45.93 265.44 51.01 260.35 52.25 259.12 53.32 258.07 53.32 258.05 81.94 229.42 110.22 201.15 147.41 238.34"></polygon>
          <path class="cls-1" d="M290,175.52v41.41l-60.6-60.6-40.58,40.58v-20.34h-31.34v47.23l-47.25-47.23-40.58,40.58v-20.37h-36.02v56.36L.02,286.74v-72.08l51.45-51.45h62.45c3,6.74,9.76,11.43,17.56,11.43,10.59,0,19.19-8.61,19.19-19.19s-8.61-19.19-19.19-19.19c-7.06,0-13.26,3.85-16.58,9.56H44.28L.02,190.08v-60.84h129.24v-38.04l36.78-36.76,21.11,21.11v41.12c-6.24,3.17-10.5,9.65-10.5,17.11,0,10.59,8.61,19.19,19.19,19.19s19.19-8.61,19.19-19.19c0-7.45-4.26-13.93-10.5-17.11v-48.32l-29.8-29.8V0h56.67v116.92l58.6,58.6Z"></path>
          <path class="cls-2" d="M229.4,189.78l-46.31,46.31-12.26,12.28-17.38,17.39-24.22,24.21h160.79v-39.6l-60.61-60.6ZM225.06,262.57h-14.42v-14.42h14.42v14.42ZM225.06,241.64h-14.42v-14.42h14.42v14.42ZM248.16,262.57h-14.42v-14.42h14.42v14.42ZM248.16,241.64h-14.42v-14.42h14.42v14.42Z"></path>
          <polygon class="cls-2" points="111.88 0 111.88 111.85 .02 111.85 41.75 70.12 0 28.34 28.34 0 70.12 41.75 111.88 0"></polygon>
        </g>
      </g>
      <g>
        <path class="cls-2" d="M339.87,181.18c-1.63-.66-3.01-1.62-4.16-2.87-.14-.16-.21-.32-.21-.46,0-.18.09-.35.26-.53l1.07-1.12c.15-.15.31-.23.47-.23.18,0,.34.09.51.26.92.92,2.01,1.64,3.27,2.14,1.26.5,2.55.75,3.87.75,1.09,0,2.06-.16,2.9-.47.85-.31,1.51-.77,2-1.39.49-.62.73-1.37.73-2.26s-.26-1.59-.79-2.15c-.53-.56-1.23-1-2.1-1.34-.87-.34-2.09-.72-3.66-1.14-1.51-.39-2.8-.82-3.87-1.3-1.07-.48-1.97-1.17-2.71-2.08-.74-.91-1.11-2.07-1.11-3.5,0-1.29.35-2.43,1.04-3.44.7-1.01,1.68-1.79,2.96-2.37,1.28-.57,2.76-.86,4.43-.86,1.45,0,2.86.24,4.22.71,1.36.47,2.57,1.14,3.62,2.01.19.14.28.3.28.49,0,.16-.07.33-.21.49l-.98,1.23c-.15.19-.32.28-.51.28-.15,0-.31-.06-.47-.19-.78-.62-1.69-1.1-2.71-1.46-1.02-.35-2.06-.53-3.1-.53s-1.92.15-2.74.44c-.82.29-1.48.72-1.96,1.28-.48.56-.72,1.23-.72,2.02s.25,1.46.76,1.96c.51.5,1.15.9,1.91,1.19.77.29,1.88.64,3.34,1.04,1.78.53,3.23,1.05,4.37,1.57,1.13.52,2.06,1.23,2.79,2.13.72.9,1.09,2.05,1.09,3.44,0,1.5-.39,2.79-1.16,3.89-.77,1.09-1.82,1.92-3.16,2.49-1.33.57-2.83.85-4.49.85-1.78,0-3.48-.33-5.1-.99Z"></path>
        <path class="cls-2" d="M361.19,181.84h-1.75c-.47,0-.7-.23-.7-.7v-23.24c0-.47.23-.7.7-.7h1.75c.47,0,.7.23.7.7v23.24c0,.47-.23.7-.7.7Z"></path>
        <path class="cls-2" d="M370.88,181.18c-1.63-.66-3.01-1.62-4.16-2.87-.14-.16-.21-.32-.21-.46,0-.18.09-.35.26-.53l1.07-1.12c.15-.15.31-.23.47-.23.18,0,.34.09.51.26.92.92,2.01,1.64,3.27,2.14,1.26.5,2.55.75,3.87.75,1.09,0,2.06-.16,2.9-.47.85-.31,1.51-.77,2-1.39.49-.62.73-1.37.73-2.26s-.26-1.59-.79-2.15c-.53-.56-1.23-1-2.1-1.34-.87-.34-2.09-.72-3.66-1.14-1.51-.39-2.8-.82-3.87-1.3-1.07-.48-1.97-1.17-2.71-2.08-.74-.91-1.11-2.07-1.11-3.5,0-1.29.35-2.43,1.04-3.44s1.68-1.79,2.96-2.37c1.28-.57,2.76-.86,4.43-.86,1.45,0,2.86.24,4.22.71,1.36.47,2.57,1.14,3.62,2.01.19.14.28.3.28.49,0,.16-.07.33-.21.49l-.98,1.23c-.15.19-.32.28-.51.28-.15,0-.31-.06-.47-.19-.78-.62-1.69-1.1-2.71-1.46-1.02-.35-2.06-.53-3.1-.53s-1.92.15-2.74.44c-.82.29-1.48.72-1.96,1.28s-.72,1.23-.72,2.02.25,1.46.76,1.96c.51.5,1.15.9,1.91,1.19.77.29,1.88.64,3.34,1.04,1.78.53,3.23,1.05,4.37,1.57,1.13.52,2.06,1.23,2.79,2.13.72.9,1.09,2.05,1.09,3.44,0,1.5-.39,2.79-1.16,3.89-.77,1.09-1.82,1.92-3.16,2.49-1.33.57-2.83.85-4.49.85-1.78,0-3.48-.33-5.1-.99Z"></path>
        <path class="cls-2" d="M397.01,181.84h-1.75c-.47,0-.7-.23-.7-.7v-21.05h-7.17c-.47,0-.7-.23-.7-.7v-1.49c0-.47.23-.7.7-.7h17.51c.47,0,.7.23.7.7v1.49c0,.47-.23.7-.7.7h-7.17v21.05c0,.47-.23.7-.7.7Z"></path>
        <path class="cls-2" d="M426.67,181.84h-16.1c-.47,0-.7-.23-.7-.7v-23.24c0-.47.23-.7.7-.7h15.86c.47,0,.7.23.7.7v1.58c0,.47-.23.7-.7.7h-13.4v7.24h10.77c.47,0,.7.23.7.7v1.58c0,.47-.23.7-.7.7h-10.77v8.45h13.65c.47,0,.7.23.7.7v1.58c0,.47-.23.7-.7.7Z"></path>
        <path class="cls-2" d="M433.42,181.84h-1.81c-.23,0-.41-.06-.52-.19-.11-.13-.16-.31-.13-.54l2.68-23.24c.06-.44.3-.67.74-.67h2.37c.4,0,.66.19.79.56l7.24,19.58,7.23-19.58c.14-.37.41-.56.81-.56h2.35c.22,0,.4.06.53.18.13.12.2.28.23.49l2.67,23.24c.02.23-.02.41-.13.54-.11.13-.28.19-.52.19h-1.81c-.43,0-.68-.22-.74-.67l-1.96-18.94-7.09,19.05c-.14.37-.41.56-.81.56h-1.51c-.4,0-.66-.19-.79-.56l-7.07-19.05-2.02,18.94c-.06.45-.3.67-.74.67Z"></path>
        <path class="cls-2" d="M483.25,181.36c0,.15-.05.27-.16.35-.1.08-.26.12-.46.12h-1.81c-.4,0-.67-.18-.81-.54l-1.95-5h-11.75l-1.93,5c-.14.36-.41.54-.81.54h-1.81c-.2,0-.35-.04-.46-.13-.1-.09-.16-.21-.16-.36,0-.09.02-.2.05-.32l9.33-23.31c.14-.36.41-.54.82-.54h1.67c.41,0,.68.18.82.54l9.31,23.31c.05.11.07.22.07.33ZM476.98,173.4l-4.61-11.95-.16-.49-.16.49-4.63,11.95h9.56Z"></path>
        <path class="cls-2" d="M496.5,181.13v-23.24c0-.47.23-.7.7-.7h7.81c2.34,0,4.48.54,6.43,1.63,1.95,1.09,3.48,2.58,4.61,4.46,1.13,1.89,1.69,3.97,1.69,6.25s-.56,4.34-1.69,6.22c-1.13,1.88-2.66,3.36-4.6,4.45-1.94,1.09-4.07,1.63-6.39,1.63h-7.86c-.47,0-.7-.23-.7-.7ZM509.89,177.62c1.43-.82,2.56-1.95,3.39-3.37.83-1.42,1.25-2.99,1.25-4.71s-.42-3.31-1.25-4.74c-.84-1.43-1.98-2.56-3.42-3.39-1.44-.82-3.04-1.24-4.78-1.24h-5.42v18.68h5.49c1.73,0,3.31-.41,4.74-1.24Z"></path>
        <path class="cls-2" d="M539.68,181.84h-16.1c-.47,0-.7-.23-.7-.7v-23.24c0-.47.23-.7.7-.7h15.86c.47,0,.7.23.7.7v1.58c0,.47-.23.7-.7.7h-13.4v7.24h10.77c.47,0,.7.23.7.7v1.58c0,.47-.23.7-.7.7h-10.77v8.45h13.65c.47,0,.7.23.7.7v1.58c0,.47-.23.7-.7.7Z"></path>
        <path class="cls-2" d="M571.8,170.71h1.74c.47,0,.7.23.7.7v7.52c0,.36-.14.64-.42.84-1.1.78-2.36,1.39-3.77,1.82-1.42.43-2.83.65-4.24.65-2.33,0-4.46-.57-6.4-1.71-1.94-1.14-3.47-2.68-4.6-4.63-1.12-1.95-1.68-4.09-1.68-6.43s.56-4.46,1.68-6.41c1.12-1.95,2.65-3.48,4.6-4.61,1.94-1.13,4.08-1.69,6.4-1.69,1.43,0,2.8.23,4.13.69,1.33.46,2.53,1.11,3.6,1.94.2.16.3.33.3.51,0,.15-.06.31-.19.47l-1.02,1.32c-.16.2-.34.3-.53.3-.15,0-.3-.06-.46-.18-.83-.63-1.74-1.13-2.74-1.48-1-.36-2.03-.53-3.1-.53-1.71,0-3.29.43-4.74,1.29-1.46.86-2.61,2.03-3.46,3.51-.85,1.48-1.28,3.11-1.28,4.88s.43,3.43,1.28,4.93c.85,1.5,2.01,2.68,3.46,3.55,1.46.87,3.04,1.31,4.74,1.31.88,0,1.78-.12,2.72-.37.94-.25,1.79-.58,2.58-1.02v-6.47c0-.47.23-.7.7-.7Z"></path>
        <path class="cls-2" d="M596.69,181.84h-16.1c-.47,0-.7-.23-.7-.7v-23.24c0-.47.23-.7.7-.7h15.86c.47,0,.7.23.7.7v1.58c0,.47-.23.7-.7.7h-13.4v7.24h10.77c.47,0,.7.23.7.7v1.58c0,.47-.23.7-.7.7h-10.77v8.45h13.65c.47,0,.7.23.7.7v1.58c0,.47-.23.7-.7.7Z"></path>
        <path class="cls-2" d="M604.67,181.18c-1.63-.66-3.01-1.62-4.16-2.87-.14-.16-.21-.32-.21-.46,0-.18.09-.35.26-.53l1.07-1.12c.15-.15.31-.23.47-.23.18,0,.34.09.51.26.92.92,2.01,1.64,3.27,2.14,1.26.5,2.55.75,3.87.75,1.09,0,2.06-.16,2.9-.47.85-.31,1.51-.77,2-1.39.49-.62.73-1.37.73-2.26s-.26-1.59-.79-2.15c-.53-.56-1.23-1-2.1-1.34-.87-.34-2.09-.72-3.66-1.14-1.51-.39-2.8-.82-3.87-1.3-1.07-.48-1.97-1.17-2.71-2.08-.74-.91-1.11-2.07-1.11-3.5,0-1.29.35-2.43,1.04-3.44.7-1.01,1.68-1.79,2.96-2.37,1.28-.57,2.76-.86,4.43-.86,1.45,0,2.86.24,4.22.71,1.36.47,2.57,1.14,3.62,2.01.19.14.28.3.28.49,0,.16-.07.33-.21.49l-.98,1.23c-.15.19-.32.28-.51.28-.15,0-.31-.06-.47-.19-.78-.62-1.69-1.1-2.71-1.46-1.02-.35-2.06-.53-3.1-.53s-1.92.15-2.74.44c-.82.29-1.48.72-1.96,1.28-.48.56-.72,1.23-.72,2.02s.25,1.46.76,1.96c.51.5,1.15.9,1.91,1.19.77.29,1.88.64,3.34,1.04,1.78.53,3.23,1.05,4.37,1.57,1.13.52,2.06,1.23,2.79,2.13.72.9,1.09,2.05,1.09,3.44,0,1.5-.39,2.79-1.16,3.89-.77,1.09-1.82,1.92-3.16,2.49-1.33.57-2.83.85-4.49.85-1.78,0-3.48-.33-5.1-.99Z"></path>
        <path class="cls-2" d="M630.8,181.84h-1.75c-.47,0-.7-.23-.7-.7v-21.05h-7.17c-.47,0-.7-.23-.7-.7v-1.49c0-.47.23-.7.7-.7h17.51c.47,0,.7.23.7.7v1.49c0,.47-.23.7-.7.7h-7.17v21.05c0,.47-.23.7-.7.7Z"></path>
        <path class="cls-2" d="M646.11,181.84h-1.75c-.47,0-.7-.23-.7-.7v-23.24c0-.47.23-.7.7-.7h1.75c.47,0,.7.23.7.7v23.24c0,.47-.23.7-.7.7Z"></path>
        <path class="cls-2" d="M658.23,180.55c-1.94-1.13-3.47-2.67-4.6-4.61-1.12-1.95-1.68-4.09-1.68-6.43s.56-4.48,1.68-6.43c1.12-1.95,2.65-3.48,4.6-4.6,1.94-1.12,4.08-1.68,6.4-1.68s4.48.56,6.42,1.68c1.94,1.12,3.47,2.66,4.6,4.6,1.12,1.95,1.68,4.09,1.68,6.43s-.56,4.48-1.68,6.43c-1.12,1.95-2.65,3.48-4.6,4.61-1.94,1.13-4.08,1.69-6.42,1.69s-4.46-.56-6.4-1.69ZM669.39,177.91c1.45-.85,2.6-2.02,3.46-3.49.85-1.47,1.28-3.1,1.28-4.89s-.43-3.43-1.28-4.91-2.01-2.65-3.46-3.51c-1.45-.85-3.03-1.28-4.75-1.28s-3.29.43-4.74,1.28c-1.45.85-2.6,2.02-3.46,3.51-.85,1.49-1.28,3.12-1.28,4.91s.43,3.41,1.28,4.89c.85,1.48,2.01,2.65,3.46,3.5,1.45.85,3.03,1.28,4.74,1.28s3.3-.43,4.75-1.28ZM667.79,151.86c.11.07.17.16.17.28,0,.15-.09.31-.26.47l-2.6,2.42c-.23.22-.53.33-.88.33h-1.25c-.19,0-.33-.04-.44-.11-.1-.08-.16-.18-.16-.31,0-.14.05-.29.16-.44l1.81-2.33c.12-.15.24-.26.37-.32.13-.06.29-.1.47-.1h2.16c.19,0,.34.04.45.11Z"></path>
        <path class="cls-2" d="M684.93,181.84h-1.75c-.47,0-.7-.23-.7-.7v-23.24c0-.47.23-.7.7-.7h2.02c.19,0,.34.03.47.1.13.06.25.17.37.32l14.03,19.05v-18.77c0-.47.23-.7.7-.7h1.75c.47,0,.7.23.7.7v23.24c0,.47-.23.7-.7.7h-1.84c-.19,0-.34-.03-.47-.1-.13-.06-.25-.17-.37-.32l-14.21-19.26v18.98c0,.47-.23.7-.7.7Z"></path>
      </g>
      <g>
        <path class="cls-2" d="M334.62,228.28v-30.51c0-.61.31-.92.92-.92h11.26c3.13,0,6,.71,8.6,2.12,2.6,1.41,4.66,3.35,6.17,5.81,1.51,2.46,2.27,5.21,2.27,8.23s-.75,5.77-2.26,8.24c-1.5,2.47-3.55,4.41-6.15,5.82-2.59,1.41-5.45,2.12-8.56,2.12h-11.33c-.61,0-.92-.31-.92-.92ZM351.4,220.22c1.26-.69,2.24-1.66,2.96-2.91.71-1.25,1.07-2.68,1.07-4.29s-.36-3-1.07-4.25c-.71-1.25-1.7-2.23-2.97-2.92-1.27-.7-2.69-1.05-4.27-1.05h-4.21v16.46h4.24c1.58,0,3-.35,4.26-1.04Z"></path>
        <path class="cls-2" d="M391.6,229.2h-22.01c-.61,0-.92-.31-.92-.92v-30.51c0-.61.31-.92.92-.92h21.67c.61,0,.92.31.92.92v5.64c0,.61-.31.92-.92.92h-14.3v5.04h10.98c.61,0,.92.31.92.92v5.18c0,.61-.31.92-.92.92h-10.98v5.32h14.64c.61,0,.92.31.92.92v5.64c0,.61-.31.92-.92.92Z"></path>
        <path class="cls-2" d="M408.87,228.28v-30.51c0-.61.31-.92.92-.92h13.05c2.23,0,4.2.46,5.92,1.39,1.72.93,3.06,2.23,4.02,3.89.96,1.67,1.44,3.57,1.44,5.72s-.42,3.82-1.27,5.28c-.84,1.47-2.03,2.66-3.55,3.58l5.71,11.4c.09.18.14.35.14.48,0,.18-.07.33-.22.44-.15.11-.34.16-.59.16h-7.37c-.51,0-.87-.23-1.08-.69l-4.51-9.65c-.23.02-.56.02-.99.02h-3.34v9.39c0,.61-.31.92-.92.92h-6.45c-.61,0-.92-.31-.92-.92ZM424,211.31c.57-.37,1.01-.86,1.34-1.47.32-.61.48-1.27.48-1.96,0-1.21-.35-2.14-1.06-2.8-.71-.65-1.57-.98-2.6-.98h-5v7.76h4.93c.71,0,1.34-.18,1.91-.55Z"></path>
        <path class="cls-2" d="M462.7,229.2h-22.01c-.61,0-.92-.31-.92-.92v-30.51c0-.61.31-.92.92-.92h21.67c.61,0,.92.31.92.92v5.64c0,.61-.31.92-.92.92h-14.3v5.04h10.98c.61,0,.92.31.92.92v5.18c0,.61-.31.92-.92.92h-10.98v5.32h14.64c.61,0,.92.31.92.92v5.64c0,.61-.31.92-.92.92Z"></path>
        <path class="cls-2" d="M472.36,228.32c-2.19-.95-4.09-2.34-5.72-4.17-.18-.21-.28-.42-.28-.62,0-.23.11-.46.35-.69l4.07-3.87c.2-.2.41-.3.62-.3.25,0,.47.11.67.35.98,1.01,2.08,1.78,3.29,2.29,1.21.51,2.47.77,3.78.77s2.28-.22,2.92-.67c.64-.45.97-1.05.97-1.82,0-.52-.14-.97-.43-1.36-.28-.38-.83-.77-1.64-1.15-.81-.38-1.98-.81-3.53-1.27-2.56-.75-4.85-1.95-6.85-3.6-2-1.65-3-3.88-3-6.69,0-1.67.42-3.22,1.27-4.63.84-1.41,2.13-2.54,3.87-3.4,1.73-.85,3.87-1.28,6.4-1.28,2.13,0,4.17.38,6.12,1.15,1.95.77,3.68,1.8,5.2,3.11.23.2.35.42.35.67,0,.21-.09.43-.28.64l-3.73,4.19c-.2.25-.42.37-.67.37-.2,0-.41-.08-.62-.25-.86-.68-1.83-1.25-2.92-1.72-1.09-.47-2.16-.7-3.22-.7-2.16,0-3.25.64-3.25,1.91,0,.54.18.99.53,1.36.35.37.82.68,1.42.94.59.26,1.5.61,2.73,1.04.17.05.42.13.76.25,2.18.77,3.98,1.59,5.41,2.46,1.43.87,2.53,1.95,3.32,3.21.78,1.27,1.17,2.79,1.17,4.57,0,2.06-.5,3.86-1.5,5.42-1,1.56-2.41,2.76-4.24,3.61-1.83.85-3.94,1.28-6.35,1.28s-4.8-.48-6.99-1.43Z"></path>
        <path class="cls-2" d="M503.48,229.2h-6.45c-.61,0-.92-.31-.92-.92v-30.51c0-.61.31-.92.92-.92h6.45c.61,0,.92.31.92.92v30.51c0,.61-.31.92-.92.92Z"></path>
        <path class="cls-2" d="M510.84,228.28v-30.51c0-.61.31-.92.92-.92h11.26c3.13,0,6,.71,8.6,2.12,2.6,1.41,4.66,3.35,6.17,5.81,1.51,2.46,2.27,5.21,2.27,8.23s-.75,5.77-2.26,8.24c-1.5,2.47-3.55,4.41-6.15,5.82-2.59,1.41-5.45,2.12-8.56,2.12h-11.33c-.61,0-.92-.31-.92-.92ZM527.63,220.22c1.26-.69,2.24-1.66,2.96-2.91.71-1.25,1.07-2.68,1.07-4.29s-.36-3-1.07-4.25c-.71-1.25-1.7-2.23-2.97-2.92-1.27-.7-2.69-1.05-4.27-1.05h-4.21v16.46h4.24c1.58,0,3-.35,4.26-1.04Z"></path>
        <path class="cls-2" d="M567.83,229.2h-22.01c-.61,0-.92-.31-.92-.92v-30.51c0-.61.31-.92.92-.92h21.67c.61,0,.92.31.92.92v5.64c0,.61-.31.92-.92.92h-14.3v5.04h10.98c.61,0,.92.31.92.92v5.18c0,.61-.31.92-.92.92h-10.98v5.32h14.64c.61,0,.92.31.92.92v5.64c0,.61-.31.92-.92.92Z"></path>
        <path class="cls-2" d="M580.72,229.2h-6.22c-.61,0-.92-.31-.92-.92v-30.51c0-.61.31-.92.92-.92h7.11c.49,0,.86.2,1.11.6l11.03,17.68v-17.36c0-.61.31-.92.92-.92h6.22c.61,0,.92.31.92.92v30.51c0,.61-.31.92-.92.92h-6.33c-.48,0-.84-.2-1.1-.6l-11.81-18.7v18.37c0,.61-.31.92-.92.92Z"></path>
        <path class="cls-2" d="M614.95,227.52c-2.57-1.5-4.6-3.54-6.08-6.1-1.48-2.56-2.22-5.38-2.22-8.45s.74-5.89,2.22-8.45c1.48-2.56,3.5-4.59,6.07-6.07,2.56-1.48,5.41-2.22,8.54-2.22,1.9,0,3.73.29,5.47.87,1.74.58,3.32,1.4,4.73,2.46.26.2.39.43.39.69,0,.2-.08.4-.23.6l-3.73,4.88c-.22.26-.45.39-.69.39-.2,0-.4-.07-.6-.21-.78-.54-1.64-.96-2.56-1.28-.92-.31-1.85-.47-2.79-.47-1.49,0-2.88.39-4.17,1.16-1.29.78-2.32,1.84-3.1,3.19-.78,1.35-1.16,2.84-1.16,4.47s.39,3.12,1.16,4.47c.77,1.35,1.81,2.42,3.11,3.2,1.3.78,2.68,1.17,4.16,1.17,1.06,0,1.99-.13,2.8-.4.81-.27,1.67-.73,2.59-1.39.21-.14.42-.21.62-.21.26,0,.49.13.69.39l3.66,4.9c.17.25.25.46.25.65,0,.21-.11.41-.35.6-1.43,1.09-3.02,1.93-4.77,2.52-1.75.59-3.58.89-5.5.89-3.12,0-5.96-.75-8.53-2.26Z"></path>
        <path class="cls-2" d="M645.97,229.2h-6.45c-.61,0-.92-.31-.92-.92v-30.51c0-.61.31-.92.92-.92h6.45c.61,0,.92.31.92.92v30.51c0,.61-.31.92-.92.92Z"></path>
        <path class="cls-2" d="M682.17,228.53c0,.21-.07.38-.21.49-.14.12-.33.17-.58.17h-6.63c-.52,0-.87-.25-1.04-.76l-1.47-4.31h-11.6l-1.47,4.31c-.15.51-.5.76-1.04.76h-6.61c-.25,0-.44-.06-.59-.17-.15-.11-.22-.28-.22-.49,0-.12.02-.25.07-.39l11.79-30.6c.18-.49.54-.74,1.06-.74h5.69c.52,0,.87.25,1.06.74l11.72,30.6c.05.14.07.27.07.39ZM669.92,217.23l-3.09-9.07-.41-1.47-.35,1.47-3.09,9.07h6.93Z"></path>
        <path class="cls-2" d="M689.89,228.32c-2.19-.95-4.09-2.34-5.72-4.17-.18-.21-.28-.42-.28-.62,0-.23.11-.46.35-.69l4.08-3.87c.2-.2.41-.3.62-.3.25,0,.47.11.67.35.98,1.01,2.08,1.78,3.29,2.29,1.21.51,2.47.77,3.78.77s2.28-.22,2.92-.67c.64-.45.97-1.05.97-1.82,0-.52-.14-.97-.43-1.36-.28-.38-.83-.77-1.63-1.15-.81-.38-1.98-.81-3.53-1.27-2.56-.75-4.85-1.95-6.85-3.6-2-1.65-3-3.88-3-6.69,0-1.67.42-3.22,1.27-4.63.84-1.41,2.13-2.54,3.87-3.4,1.73-.85,3.87-1.28,6.4-1.28,2.13,0,4.17.38,6.12,1.15,1.95.77,3.68,1.8,5.2,3.11.23.2.35.42.35.67,0,.21-.09.43-.28.64l-3.73,4.19c-.2.25-.42.37-.67.37-.2,0-.41-.08-.62-.25-.86-.68-1.83-1.25-2.92-1.72-1.09-.47-2.16-.7-3.22-.7-2.16,0-3.25.64-3.25,1.91,0,.54.18.99.53,1.36.35.37.82.68,1.42.94.59.26,1.5.61,2.73,1.04.17.05.42.13.76.25,2.18.77,3.98,1.59,5.41,2.46,1.43.87,2.53,1.95,3.32,3.21.78,1.27,1.17,2.79,1.17,4.57,0,2.06-.5,3.86-1.5,5.42-1,1.56-2.41,2.76-4.24,3.61-1.83.85-3.94,1.28-6.35,1.28s-4.8-.48-6.99-1.43Z"></path>
      </g>
      <g>
        <path class="cls-2" d="M347.72,276.83h-6.45c-.61,0-.92-.31-.92-.92v-11.42l-10.64-18.9c-.09-.18-.14-.35-.14-.51,0-.18.07-.33.21-.44.14-.11.33-.16.58-.16h7.55c.51,0,.87.23,1.08.69l5.57,11.58,5.39-11.58c.2-.46.56-.69,1.08-.69h7.6c.24,0,.44.05.58.16.14.11.21.25.21.44,0,.15-.05.32-.14.51l-10.64,18.86v11.47c0,.61-.31.92-.92.92Z"></path>
        <path class="cls-2" d="M380.97,275.15c-2.57-1.5-4.6-3.54-6.08-6.1-1.48-2.56-2.22-5.38-2.22-8.45s.74-5.89,2.22-8.45c1.48-2.56,3.5-4.59,6.07-6.07,2.56-1.48,5.41-2.22,8.54-2.22,1.9,0,3.73.29,5.47.87,1.74.58,3.32,1.4,4.73,2.46.26.2.39.43.39.69,0,.2-.08.4-.23.6l-3.73,4.88c-.22.26-.45.39-.69.39-.2,0-.4-.07-.6-.21-.78-.54-1.64-.96-2.56-1.28-.92-.31-1.85-.47-2.79-.47-1.49,0-2.88.39-4.17,1.16-1.29.78-2.32,1.84-3.1,3.19-.78,1.35-1.16,2.84-1.16,4.47s.39,3.12,1.16,4.47c.77,1.35,1.81,2.42,3.11,3.2,1.3.78,2.68,1.17,4.16,1.17,1.06,0,1.99-.13,2.8-.4s1.67-.73,2.59-1.39c.21-.14.42-.21.62-.21.26,0,.49.13.69.39l3.66,4.9c.17.25.25.46.25.65,0,.21-.11.41-.35.6-1.43,1.09-3.02,1.93-4.77,2.52-1.75.59-3.58.89-5.5.89-3.12,0-5.96-.75-8.53-2.26Z"></path>
        <path class="cls-2" d="M409.94,275.15c-2.57-1.5-4.6-3.54-6.08-6.1-1.48-2.56-2.22-5.38-2.22-8.45s.74-5.89,2.22-8.45c1.48-2.56,3.5-4.59,6.07-6.07,2.56-1.48,5.41-2.22,8.54-2.22s5.96.75,8.52,2.23c2.56,1.49,4.59,3.51,6.07,6.07,1.48,2.56,2.22,5.37,2.22,8.44s-.74,5.87-2.22,8.44c-1.48,2.57-3.51,4.61-6.08,6.11-2.57,1.5-5.41,2.26-8.51,2.26s-5.96-.75-8.53-2.26ZM422.64,268.3c1.29-.78,2.32-1.84,3.09-3.2.77-1.36,1.15-2.85,1.15-4.48s-.39-3.12-1.16-4.47c-.78-1.35-1.81-2.41-3.1-3.19-1.29-.77-2.67-1.16-4.14-1.16s-2.88.39-4.17,1.16c-1.29.78-2.32,1.84-3.1,3.19-.78,1.35-1.16,2.84-1.16,4.47s.39,3.12,1.16,4.47c.77,1.35,1.81,2.42,3.11,3.2,1.3.78,2.68,1.17,4.16,1.17s2.88-.39,4.17-1.16Z"></path>
        <path class="cls-2" d="M447.25,276.83h-6.22c-.61,0-.92-.31-.92-.92v-30.51c0-.61.31-.92.92-.92h7.11c.49,0,.86.2,1.11.6l11.03,17.68v-17.36c0-.61.31-.92.92-.92h6.22c.61,0,.92.31.92.92v30.51c0,.61-.31.92-.92.92h-6.33c-.48,0-.84-.2-1.1-.6l-11.81-18.7v18.37c0,.61-.31.92-.92.92Z"></path>
        <path class="cls-2" d="M474.79,275.91v-30.51c0-.61.31-.92.92-.92h11.26c3.13,0,6,.71,8.6,2.12,2.6,1.41,4.66,3.35,6.17,5.81,1.51,2.46,2.27,5.21,2.27,8.23s-.75,5.77-2.26,8.24c-1.5,2.47-3.55,4.41-6.15,5.82-2.59,1.41-5.45,2.12-8.56,2.12h-11.33c-.61,0-.92-.31-.92-.92ZM491.57,267.85c1.26-.69,2.24-1.66,2.96-2.91.71-1.25,1.07-2.68,1.07-4.29s-.36-3-1.07-4.25c-.71-1.25-1.7-2.23-2.97-2.92-1.27-.7-2.69-1.05-4.27-1.05h-4.21v16.46h4.24c1.58,0,3-.35,4.26-1.04Z"></path>
        <path class="cls-2" d="M515.53,275.15c-2.57-1.5-4.6-3.54-6.08-6.1-1.48-2.56-2.22-5.38-2.22-8.45s.74-5.89,2.22-8.45c1.48-2.56,3.5-4.59,6.07-6.07,2.56-1.48,5.41-2.22,8.54-2.22s5.96.75,8.52,2.23c2.56,1.49,4.59,3.51,6.07,6.07,1.48,2.56,2.22,5.37,2.22,8.44s-.74,5.87-2.22,8.44c-1.48,2.57-3.51,4.61-6.08,6.11-2.57,1.5-5.41,2.26-8.51,2.26s-5.96-.75-8.53-2.26ZM528.22,268.3c1.29-.78,2.32-1.84,3.09-3.2.77-1.36,1.15-2.85,1.15-4.48s-.39-3.12-1.16-4.47c-.78-1.35-1.81-2.41-3.1-3.19-1.29-.77-2.67-1.16-4.14-1.16s-2.88.39-4.17,1.16c-1.29.78-2.32,1.84-3.1,3.19-.78,1.35-1.16,2.84-1.16,4.47s.39,3.12,1.16,4.47c.77,1.35,1.81,2.42,3.11,3.2,1.3.78,2.68,1.17,4.16,1.17s2.88-.39,4.17-1.16Z"></path>
        <path class="cls-2" d="M550.58,276.83h-6.52c-.31,0-.54-.08-.69-.25-.15-.17-.21-.41-.18-.71l3.94-30.53c.03-.28.13-.49.31-.63.18-.15.4-.22.68-.22h7.62c.54,0,.87.26,1.01.78l5.57,20.1,5.55-20.1c.14-.52.48-.78,1.01-.78h7.64c.28,0,.5.07.68.22s.28.36.31.63l3.96,30.55c.03.31-.03.54-.18.71-.15.17-.38.25-.69.25h-6.54c-.57,0-.89-.29-.97-.87l-1.93-18.19-4.97,18.26c-.14.52-.48.78-1.01.78h-5.62c-.54,0-.87-.26-1.01-.78l-4.97-18.26-2.03,18.17c-.08.58-.4.87-.97.87Z"></path>
        <path class="cls-2" d="M593.84,276.83h-6.45c-.61,0-.92-.31-.92-.92v-30.51c0-.61.31-.92.92-.92h6.45c.61,0,.92.31.92.92v30.51c0,.61-.31.92-.92.92Z"></path>
        <path class="cls-2" d="M608.35,276.83h-6.22c-.61,0-.92-.31-.92-.92v-30.51c0-.61.31-.92.92-.92h7.11c.49,0,.86.2,1.11.6l11.03,17.68v-17.36c0-.61.31-.92.92-.92h6.22c.61,0,.92.31.92.92v30.51c0,.61-.31.92-.92.92h-6.33c-.48,0-.84-.2-1.1-.6l-11.81-18.7v18.37c0,.61-.31.92-.92.92Z"></path>
        <path class="cls-2" d="M643.25,276.83h-6.45c-.61,0-.92-.31-.92-.92v-30.51c0-.61.31-.92.92-.92h6.45c.61,0,.92.31.92.92v30.51c0,.61-.31.92-.92.92Z"></path>
        <path class="cls-2" d="M657.31,275.15c-2.57-1.5-4.6-3.54-6.08-6.1-1.48-2.56-2.22-5.38-2.22-8.45s.74-5.89,2.22-8.45c1.48-2.56,3.5-4.59,6.07-6.07,2.56-1.48,5.41-2.22,8.54-2.22s5.96.75,8.52,2.23c2.56,1.49,4.59,3.51,6.07,6.07,1.48,2.56,2.22,5.37,2.22,8.44s-.74,5.87-2.22,8.44c-1.48,2.57-3.51,4.61-6.08,6.11-2.57,1.5-5.41,2.26-8.51,2.26s-5.96-.75-8.53-2.26ZM670.01,268.3c1.29-.78,2.32-1.84,3.09-3.2.77-1.36,1.15-2.85,1.15-4.48s-.39-3.12-1.16-4.47c-.78-1.35-1.81-2.41-3.1-3.19-1.29-.77-2.67-1.16-4.14-1.16s-2.88.39-4.17,1.16c-1.29.78-2.32,1.84-3.1,3.19-.78,1.35-1.16,2.84-1.16,4.47s.39,3.12,1.16,4.47c.78,1.35,1.81,2.42,3.11,3.2,1.3.78,2.68,1.17,4.16,1.17s2.88-.39,4.17-1.16Z"></path>
        <path class="cls-2" d="M690.69,275.96c-2.19-.95-4.09-2.34-5.72-4.17-.18-.21-.28-.42-.28-.62,0-.23.11-.46.35-.69l4.08-3.87c.2-.2.41-.3.62-.3.25,0,.47.11.67.35.98,1.01,2.08,1.78,3.29,2.29,1.21.51,2.47.77,3.78.77s2.28-.22,2.92-.67c.64-.45.97-1.05.97-1.82,0-.52-.14-.97-.43-1.36-.28-.38-.83-.77-1.63-1.15-.81-.38-1.98-.81-3.53-1.27-2.56-.75-4.85-1.95-6.85-3.6-2-1.65-3-3.88-3-6.69,0-1.67.42-3.22,1.27-4.63.84-1.41,2.13-2.54,3.87-3.4,1.73-.85,3.87-1.28,6.4-1.28,2.13,0,4.17.38,6.12,1.15,1.95.77,3.68,1.8,5.2,3.11.23.2.35.42.35.67,0,.21-.09.43-.28.64l-3.73,4.19c-.2.25-.42.37-.67.37-.2,0-.41-.08-.62-.25-.86-.68-1.83-1.25-2.92-1.72-1.09-.47-2.16-.7-3.22-.7-2.16,0-3.25.64-3.25,1.91,0,.54.18.99.53,1.36.35.37.82.68,1.42.94.59.26,1.5.61,2.73,1.04.17.05.42.13.76.25,2.18.77,3.98,1.59,5.41,2.46,1.43.87,2.53,1.95,3.32,3.21.78,1.27,1.17,2.79,1.17,4.57,0,2.06-.5,3.86-1.5,5.42-1,1.56-2.41,2.76-4.24,3.61-1.83.85-3.94,1.28-6.35,1.28s-4.8-.48-6.99-1.43Z"></path>
      </g>
    </g>
  </g>
</svg>