<?xml version="1.0"?>
<svg xmlns="http://www.w3.org/2000/svg" xmlns:xlink="http://www.w3.org/1999/xlink" viewBox="0 0 2787 1520">
  <defs>
    
    <clipPath id="clippath">
      <rect class="cls-1" width="2787" height="1520"></rect>
    </clipPath>
    <linearGradient id="Degradado_sin_nombre_17" data-name="Degradado sin nombre 17" x1="-1022.37" y1="1811.23" x2="-1022.37" y2="330.9" gradientTransform="translate(364.2) rotate(-180) scale(1 -1)" gradientUnits="userSpaceOnUse">
      <stop offset=".18" stop-color="#ccedff"></stop>
      <stop offset=".26" stop-color="#a7c9e4"></stop>
      <stop offset=".4" stop-color="#7499bf"></stop>
      <stop offset=".53" stop-color="#4a72a1"></stop>
      <stop offset=".66" stop-color="#2a5389"></stop>
      <stop offset=".78" stop-color="#123c78"></stop>
      <stop offset=".9" stop-color="#042f6e"></stop>
      <stop offset="1" stop-color="#002b6b"></stop>
    </linearGradient>
    <linearGradient id="Degradado_sin_nombre_4" data-name="Degradado sin nombre 4" x1="-974.76" y1="1961.54" x2="-974.76" y2="841.95" gradientTransform="translate(364.2) rotate(-180) scale(1 -1)" gradientUnits="userSpaceOnUse">
      <stop offset="0" stop-color="#0046b0"></stop>
      <stop offset=".08" stop-color="#2665be"></stop>
      <stop offset=".19" stop-color="#5289cf"></stop>
      <stop offset=".31" stop-color="#77a7de"></stop>
      <stop offset=".42" stop-color="#96c1ea"></stop>
      <stop offset=".55" stop-color="#aed4f3"></stop>
      <stop offset=".68" stop-color="#bee2f9"></stop>
      <stop offset=".82" stop-color="#c8eafd"></stop>
      <stop offset="1" stop-color="#ccedff"></stop>
    </linearGradient>
  </defs>
  <g class="cls-3">
    <g id="Layer_2" data-name="Layer 2">
      <g id="Capa_1" data-name="Capa 1">
        <g class="cls-8">
          <g class="cls-6">
            <g>
              <g>
                <path class="cls-2" d="M898.98,1556.58h-2.6v-376.38c0-27.91-22.71-50.62-50.62-50.62h-480.21c-29.34,0-53.21-23.87-53.21-53.21v-169.83h2.6v169.83c0,27.91,22.71,50.62,50.62,50.62h480.21c29.34,0,53.21,23.87,53.21,53.21v376.38Z"></path>
                <path class="cls-2" d="M303.88,907.03c0-5.39,4.37-9.76,9.76-9.76s9.76,4.37,9.76,9.76-4.37,9.76-9.76,9.76-9.76-4.37-9.76-9.76Z"></path>
              </g>
              <g>
                <path class="cls-2" d="M596.58,1264.56H-57.55v-2.6h654.12c27.91,0,50.62-22.71,50.62-50.62v-522.85h2.6v522.85c0,29.34-23.87,53.21-53.21,53.21Z"></path>
                <path class="cls-2" d="M638.73,688.99c0-5.39,4.37-9.76,9.76-9.76s9.76,4.37,9.76,9.76-4.37,9.76-9.76,9.76-9.76-4.37-9.76-9.76Z"></path>
              </g>
              <g>
                <path class="cls-2" d="M1514.16,1556.58h-2.6v-241.4c0-29.34,23.87-53.21,53.21-53.21h308.89c27.91,0,50.62-22.71,50.62-50.62v-188.19c0-27.91-22.71-50.62-50.62-50.62h-783.91c-29.34,0-53.21-23.87-53.21-53.21v-132.2h2.6v132.2c0,27.91,22.71,50.62,50.62,50.62h783.91c29.34,0,53.21,23.87,53.21,53.21v188.19c0,29.34-23.87,53.21-53.21,53.21h-308.89c-27.91,0-50.62,22.71-50.62,50.62v241.4Z"></path>
                <path class="cls-2" d="M1028.09,787.62c0-5.39,4.37-9.76,9.76-9.76s9.76,4.37,9.76,9.76-4.37,9.76-9.76,9.76-9.76-4.37-9.76-9.76Z"></path>
              </g>
              <g>
                <path class="cls-2" d="M1257.19,1556.58h-2.6v-402.34c0-29.34,23.87-53.21,53.21-53.21h342.63c27.91,0,50.62-22.71,50.62-50.62v-426.81h2.6v426.81c0,29.34-23.87,53.21-53.21,53.21h-342.63c-27.91,0-50.62,22.71-50.62,50.62v402.34Z"></path>
                <path class="cls-2" d="M1692.59,624.09c0-5.39,4.37-9.76,9.76-9.76s9.76,4.37,9.76,9.76-4.37,9.76-9.76,9.76-9.76-4.37-9.76-9.76Z"></path>
              </g>
              <g>
                <path class="cls-2" d="M2764,1086.76h-545.1c-29.34,0-53.21-23.87-53.21-53.21v-277.56h2.6v277.56c0,27.91,22.71,50.62,50.62,50.62h545.1v2.6Z"></path>
                <path class="cls-2" d="M2157.23,756.48c0-5.39,4.37-9.76,9.76-9.76s9.76,4.37,9.76,9.76-4.37,9.76-9.76,9.76-9.76-4.37-9.76-9.76Z"></path>
              </g>
              <g>
                <path class="cls-2" d="M2072.24,1556.58h-2.6v-179.1c0-29.34,23.87-53.21,53.21-53.21h316.68c27.91,0,50.62-22.71,50.62-50.62v-676h2.6v676c0,29.34-23.87,53.21-53.21,53.21h-316.68c-27.91,0-50.62,22.71-50.62,50.62v179.1Z"></path>
                <path class="cls-2" d="M2481.69,598.14c0-5.39,4.37-9.76,9.76-9.76s9.76,4.37,9.76,9.76-4.37,9.76-9.76,9.76-9.76-4.37-9.76-9.76Z"></path>
              </g>
              <g>
                <path class="cls-2" d="M2764,1215.24h-381.57c-29.34,0-53.21-23.87-53.21-53.21v-286.64h2.6v286.64c0,27.91,22.71,50.62,50.62,50.62h381.57v2.6Z"></path>
                <path class="cls-2" d="M2320.76,875.88c0-5.39,4.37-9.76,9.76-9.76s9.76,4.37,9.76,9.76-4.37,9.76-9.76,9.76-9.76-4.37-9.76-9.76Z"></path>
              </g>
              <g>
                <path class="cls-2" d="M1104.04,1556.58h-2.6v-337.44c0-29.34,23.87-53.21,53.21-53.21h828.03c27.91,0,50.62-22.71,50.62-50.62v-273.66h2.6v273.66c0,29.34-23.87,53.21-53.21,53.21h-828.03c-27.91,0-50.62,22.71-50.62,50.62v337.44Z"></path>
                <path class="cls-2" d="M2024.84,842.13c0-5.39,4.37-9.76,9.76-9.76s9.76,4.37,9.76,9.76-4.37,9.76-9.76,9.76-9.76-4.37-9.76-9.76Z"></path>
              </g>
              <g>
                <path class="cls-2" d="M1810.07,1556.58h-2.6v-189.49c0-27.91-22.71-50.62-50.62-50.62h-223.23c-29.34,0-53.21-23.87-53.21-53.21v-561.79h2.6v561.79c0,27.91,22.71,50.62,50.62,50.62h223.23c29.34,0,53.21,23.87,53.21,53.21v189.49Z"></path>
                <path class="cls-2" d="M1471.96,701.97c0-5.39,4.37-9.76,9.76-9.76s9.76,4.37,9.76,9.76-4.37,9.76-9.76,9.76-9.76-4.37-9.76-9.76Z"></path>
              </g>
              <g>
                <path class="cls-2" d="M507.02,1556.58h-2.6v-449.06c0-29.34,23.87-53.21,53.21-53.21h576.25c27.91,0,50.62-22.71,50.62-50.62v-426.81h2.6v426.81c0,29.34-23.87,53.21-53.21,53.21h-576.25c-27.91,0-50.62,22.71-50.62,50.62v449.06Z"></path>
                <path class="cls-2" d="M1176.04,577.37c0-5.39,4.37-9.76,9.76-9.76s9.76,4.37,9.76,9.76-4.37,9.76-9.76,9.76-9.76-4.37-9.76-9.76Z"></path>
              </g>
              <g>
                <path class="cls-2" d="M226.69,1556.58h-2.6v-166.13c0-29.34,23.87-53.21,53.21-53.21h607.4c27.91,0,50.62-22.71,50.62-50.62v-598.13h2.6v598.13c0,29.34-23.87,53.21-53.21,53.21H277.3c-27.91,0-50.62,22.71-50.62,50.62v166.13Z"></path>
                <path class="cls-2" d="M926.85,688.99c0-5.39,4.37-9.76,9.76-9.76s9.76,4.37,9.76,9.76-4.37,9.76-9.76,9.76-9.76-4.37-9.76-9.76Z"></path>
              </g>
              <g>
                <path class="cls-2" d="M360.36,1195.78H-57.55v-2.6h417.91c27.91,0,50.62-22.71,50.62-50.62v-386.58h2.6v386.58c0,29.34-23.87,53.21-53.21,53.21Z"></path>
                <path class="cls-2" d="M402.52,756.48c0-5.39,4.37-9.76,9.76-9.76s9.76,4.37,9.76,9.76-4.37,9.76-9.76,9.76-9.76-4.37-9.76-9.76Z"></path>
              </g>
            </g>
          </g>
          <g class="cls-4">
            <path class="cls-5" d="M-41.13,1811.23V618.68h-19.72l.99-1.53h-.03l2.18-3.37s0-.02,0-.02l14.1-21.89h-.02l2.02-3.15s.02.03.02.03l4.03-6.29h1.21s-.01-.03-.03-.04h3.81s.03.03.03.04h14.74s0-.03,0-.04h3.83s-.01.03-.01.04H-1.88s-.03-.03-.03-.04H1.92v.04h14.76s0-.03.02-.04h3.79s0,.03-.03.04h12.09v-.04h3.82s0,.03.02.04h14.73s.01-.03.01-.04h3.79v.04h12.07s0-.03-.02-.04h3.82s.02.03.02.04h14.72s.02-.03.02-.04h3.84s0,.03-.04.04h12.1s-.02-.03-.02-.04h3.78s.03.03.05.04h14.69s0-.03.02-.04h3.82s0,.03-.03.04h11.61v-152.15h0l-2.95,1.81h-.03l-10.34,6.35-.2-.49h0l-1.46-3.33.02-.03-6.94-16.25,1.18-.77s-.02.01-.04.01l5.49-3.5s0,.03-.01.03l12.47-7.98h0l1.37-.87,5.94-3.82h0l2.67-1.69h0l28.44-18.17,1.37-.91h0l4.11-2.61h0l1.33-.85,18.29-11.69,2.26-1.45h0l7.97-5.11,2.1-1.33h0l27.42-17.54,1.62-1.04h0l7.44-4.75h0l5.32-3.4h0s0,0,0,0l.04-.05.04.14,6.43,4.11,1.63,1.04h0s6.24,4,6.24,4l1.69,1.05h-.02l28.17,18.01.38.24h0l27.28,17.42,2,1.28h0l4.14,2.64h0l.13.1,32.05,20.46.3.2h0l20.24,12.93s-.01-.03-.03-.03l2.56,1.63,3.5,2.25-3.25,7.6h0l-.03.11-3.56,8.33h0l-1.42,3.37h0l-.31.7-11.43-6.99-1.78-1.09v-.02l-.09-.06v152.11h11.8s0-.03-.01-.04h3.84s0,.03.01.04h14.69s.01-.03.01-.04h3.83s-.02.03-.02.04h12.08s-.03-.03-.04-.04h3.84s.02.03.02.04h14.72s.01-.03.01-.04h3.79v.04h12.07s0-.03-.02-.04h3.83s.02.03.03.04h14.67s.04-.03.05-.04h3.79s-.01.03-.01.04h12.07v-.04h3.79s0,.03.03.04h14.71s0-.03.03-.04h3.79s-.03.03-.03.04h12.09s-.01-.03-.04-.04h3.86s0,.03.03.04h14.68s.03-.03.03-.04h3.82s-.03.03-.03.04h1.11l3.78,5.91v-90.45l-17.99,7.07-11.57-17.39,184.62-75.53h0l.06-.03.05.12,64.47,26.35v-30.56h-4.66v-15.21h74.33v15.21h-4.67v57.14l55.09,22.54-11.57,17.36-18-7.06v79.44h73.97v17.17h-5.31v12.82l62.66-52.79.09-.14.04.04h.03l131.39,110.74v-109.37h-26.77l2.94-4.7h0s1.01-1.65,1.01-1.65l.03.03,1.88-3.04h0l1.12-1.76h0l2.09-3.34v-.02l1.05-1.65h0l4.17-6.65s0,.01-.03.03l5.15-8.21h0l2.39-3.75h4.92v-.03h2.37v.03h7.93v-.03h2.36v.03h8.83s-.02,0-.02-.03h2.37s.02.03.02.03h7.91v-.03h2.4l-.02.03h8.83v-.03h2.38v.03h7.94v-.03h2.37l-.02.03h8.84v-.03h2.35s0,.03.04.03h7.93v-.03h2.37v.03h8.84l-.02-.03h2.36s0,.03.02.03h7.92v-.03h2.39v.03h8.81v-.03h2.4v.03h7.91v-.03h2.35v.03h8.85v-.03h2.36v.03h7.95v-.03h2.36v.03h8.85s-.03,0-.03-.03h2.38v.03h7.95v-.03h2.35v.03h8.83v-.03h2.37s.03.03.03.03h7.91s.01,0,.01-.03h2.36v.03h2.76v-27.75h-3.99v-17.5h81.54v17.5h-3.98v27.75h7.27v-.03h2.37v.03h5.34l3.94,6.26,3.74,6.03h0l3.89,6.14h0s1.01,1.66,1.01,1.66h0l2.01,3.15h0l1.12,1.79s0,.02,0,.02l1.97,3.13h0s1.02,1.63,1.02,1.63v.02l3.06,4.88h-26.75v119.91h12.57s.01-.01.01-.03h3.83s0,.03-.02.03h12.09s-.03-.01-.03-.03h3.8s.01.03.03.03h14.73s0-.01,0-.03h3.8s-.04.03-.04.03h12.11s-.03-.01-.03-.03h3.81s0,.03.02.03h14.69s0-.01.02-.03h3.84s-.02.03-.02.03h12.07s-.02-.01-.02-.03h3.81s.03.03.03.03h14.71s.02-.01.02-.03h3.81s0,.03,0,.03h12.05s0-.01-.03-.03h3.83s.03.03.03.03h14.7s.01-.01.01-.03h3.82s-.02.03-.02.03h11.82v-152.1l-.1.04h0l-1.87,1.16-11.33,6.95-.63-1.47-1.11-2.58v-.03l-2.89-6.8-.71-1.64h0s-3.23-7.58-3.23-7.58l1.47-.94s-.03.02-.04.02l4.63-2.98s-.03.01-.04.03l13.03-8.31v-.03l2.84-1.79h0l4.37-2.8h0l1.71-1.1,108.68-69.49.07-.13.03.05h.02l5.3,3.39h0l2.63,1.71h0l4.77,3.06h.03l3.06,1.97,8.44,5.4h0s6.06,3.87,6.06,3.87l11.47,7.33h0l2.62,1.66h-.01l7.46,4.78h.01l6.9,4.41,11.9,7.62h0l3.05,1.96h0l4.1,2.6h0l2.64,1.7h0l35.34,22.59,1.81,1.16h0s12.51,7.98,12.51,7.98t-.03-.01l5.48,3.52s0-.02,0-.02l1.14.74-3.75,8.84-.78,1.89h0l-4.01,9.37-13.34-8.15v152.14h11.61s-.02-.01-.04-.03h3.82s.02.03.02.03h14.71s.05-.01.05-.03h3.78s0,.03,0,.03h12.09s-.03-.01-.03-.03h3.82s.03.03.03.03h14.71v-.03h3.86s-.02.03-.03.03h12.09s-.03-.01-.03-.03h3.79s.03.03.03.03h14.74v-.03h3.82s-.02.03-.02.03h12.1s-.02-.01-.02-.03h3.82s0,.03.03.03h14.73s0-.01,0-.03h3.82s0,.03-.01.03h12.08s-.03-.01-.03-.03h3.81s.04.03.04.03h14.72s.01-.01.03-.03h3.8s-.03.03-.03.03h1.22l3.63,5.64v-32.26h-26.78l3.08-4.88h0l1.03-1.66h0l1.95-3.1v-.03l1.13-1.78h0l2.02-3.16h-.03s1.04-1.66,1.04-1.66h0l3.88-6.18h0l5.03-8h0l2.67-4.25h14.96v-27.77h-3.97v-17.5h81.54v17.5h-3.98v27.77h15.44-.01,86.03-.03,85.95v-23.19l-17.98,7.05-11.55-17.37,55.03-22.52v-57.17h-4.64v-15.19h74.31v15.19h-4.66v30.57l64.49-26.38.08-.12.02.04h.03l184.62,75.55-11.59,17.38-17.98-7.07v166.17l130.03-109.58.02-.03v.03l.03-.06.1.14,62.65,52.79v-12.82h-5.3v-17.19h84.08v17.19h-5.29v74.77l28.66,24.17-13.08,19.62-20.34-17.43v1022.06l-2841.72.16Z"></path>
            <path class="cls-7" d="M-129.12,1400.9s-.03.05-.03.06h19.56s0-.03-.02-.06h6.19s0,.05.02.06h23.82s.03-.03.03-.06h6.2s-.05.05-.05.06h19.61s-.04-.03-.05-.06h6.16s.03.05.03.06h23.82s0-.03.05-.06h6.18s-.04.05-.04.06H1.11v-246.64l-21.59,13.24-6.48-15.21-1.3-3.06-6.05-14.31,1.85-1.21h-.03l8.89-5.67s-.03.03-.06.03l20.29-12.95-.04-.02,2.9-1.84,57.26-36.63,4.24-2.73,6.64-4.23,4.94-3.18,19.27-12.32,11.19-7.17,12.05-7.73,4.23-2.71,18.58-11.88,9.79-6.28s0,.01-.02.01l13.72-8.78,4.96-3.18,7.76-4.95,4.25-2.75,8.61-5.49v-.03h.01l.04-.07.13.24,175.89,112.61,2.82,1.76s0,.03-.03.03l7.09,4.52,4.62,2.94h-.02l21.07,13.51s-.03-.03-.06-.06l7.51,4.8s-.03,0-.05-.01l2.35,1.52-5.22,12.31h0l-1.15,2.64-4.68,11.03h0s-1.8,4.23-1.8,4.23l-1.03,2.39-18.35-11.28-3.03-1.83h.02l-.19-.11v246.56h19.14s-.03-.03-.03-.06h6.18s.03.05.05.06h23.78s.01-.03.01-.06h6.22s-.02.05-.04.06h19.54s-.03-.03-.04-.06h6.21s.01.05.01.06h23.82s0-.03.04-.06h6.16s-.02.05-.02.06h19.55s-.04-.03-.04-.06h6.19s0,.05.03.06h23.77s.04-.03.08-.06h6.13s0,.05-.03.06h19.56s-.03-.03-.04-.06h6.16s.03.05.03.06h23.8s.06-.03.07-.06h6.14s-.01.05-.03.06h19.56s-.01-.03-.03-.06h6.22s.02.05.02.06h20.36v-194.39h-43.34l4.95-7.93h0s1.71-2.67,1.71-2.67h0s3.15-5.07,3.15-5.07c0,0,0-.01-.01-.03l1.83-2.88,3.22-5.13h0s1.67-2.71,1.67-2.71l6.26-9.98-.02.03,6.11-9.73,6.36-10.17h8.64v-.02h3.87s.02,0,.02.02h11.7v-44.97h-6.43v-28.39h131.98v28.39h-6.44v44.97h4.47v-.02h3.85s0,0,0,.02h12.83l.03-.02h3.82v.02h14.31v-.02h3.81v.02h12.85v-.02h3.84l-.02.02h14.34v-.02h3.78v.02h12.86v-.02h3.83v.02h14.29v-.02h3.86v.02h12.82v-.02h3.84v.02s14.28,0,14.28,0v-.02h3.85s0,0,0,.02h12.84s0-.02,0-.02h3.82v.02h14.33s0-.02-.03-.02h3.81v.02h12.87s.03-.02.03-.02h3.82v.02h14.3s0-.02-.02-.02h3.84s.01,0,.03.02h12.83v-.02h3.83v.02h14.3v-.02h3.85v.02h12.83s.01-.02.01-.02h3.86s-.03,0-.03.02h14.3v-.02h3.84v.02h12.86v-.02h3.8v.02h7.99l3.82,6.08,8.37,13.3s-.03,0-.05,0l6.73,10.73h0l1.7,2.7h0s3.39,5.42,3.39,5.42l1.81,2.87h-.02s3.06,4.89,3.06,4.89h.02s1.66,2.64,1.66,2.64l4.75,7.62h-43.32v177.32l212.7-179.5.03-.03v.03l.09-.09.15.23,101.41,85.59v-20.82h-8.59v-27.88h119.72v-128.72l-29.15,11.43-18.69-28.15,89.14-36.52v-92.63h-7.57v-24.66h120.34v24.66h-7.58v49.54l104.42-42.76.1-.18.07.04h.03s298.87,122.47,298.87,122.47l-18.74,28.17-29.09-11.45v146.6l6.1-9.55h1.8s-.02-.04-.05-.05h6.2s.03.04.03.05h23.78s.02-.04.06-.05h6.19s-.03.04-.03.05h19.55s-.03-.04-.05-.05h6.15s.05.04.07.05h23.8s.03-.04.07-.05h6.13s-.02.04-.04.05h19.55s-.03-.04-.03-.05h6.14s.04.04.06.05h23.78s.02-.04.03-.05h6.21s-.02.04-.05.05h19.54s0-.04,0-.05h6.16s.01.04.03.05h23.81s.03-.04.03-.05h6.19s-.04.04-.04.05h19.54s-.02-.04-.04-.05h6.2s.02.04.02.05h23.76s.05-.04.05-.05h6.2s-.02.04-.03.05h19.09v-246.58l-.14.12h.02l-2.91,1.76-18.5,11.36-.49-1.16-2.33-5.44-5.74-13.49-.07-.18-5.26-12.33,5.72-3.65,4.11-2.66s-.03.05-.08.06l32.79-20.98.5-.33,51.87-33.18.19-.14,6.69-4.27,3.25-2.08,44.13-28.25.64-.39,45.6-29.18h0l2.71-1.74,10.09-6.45h0s2.64-1.7,2.64-1.7l10.39-6.66.12-.22.07.05h0v.03l8.6,5.49,12.01,7.7,2.63,1.69,44.39,28.41,3.38,2.18,12.92,8.29h.02l3.66,2.34,29.6,18.95,2.14,1.37,6.62,4.25,2.28,1.44,46,29.46,4.34,2.77,9.61,6.14,2.18,1.4h-.03l20.25,12.95s-.04-.02-.04-.03l8.88,5.69s-.04-.03-.06-.03l1.91,1.23-11.22,26.35h.03l-2.33,5.44-.32.79-16.8-10.31-4.79-2.92v246.63h18.78s-.02-.04-.03-.05h6.15s.03.04.05.05h23.84s.04-.04.04-.05h6.15s0,.04-.04.05h19.58s-.04-.04-.04-.05h6.23v.05h23.82s.03-.04.03-.05h6.18s-.04.04-.04.05h19.56s-.02-.04-.02-.05h6.17s.03.04.03.05h9.32v711.85l-2944.72-.14v-560.5h4.28Z"></path>
          </g>
        </g>
      </g>
    </g>
  </g>
</svg>