<?xml version="1.0"?>
<svg xmlns="http://www.w3.org/2000/svg" viewBox="0 0 3374.88 1182.92">
  <defs>
    
  </defs>
  <g class="cls-3">
    <g id="Layer_2" data-name="Layer 2">
      <g id="Layer_1-2" data-name="Layer 1">
        <g class="cls-2">
          <g>
            <g>
              <path class="cls-1" d="M1144.11,1182.92h-3.1v-450.19c0-33.38-27.16-60.54-60.54-60.54H506.08c-35.1,0-63.65-28.55-63.65-63.65v-203.14h3.1v203.14c0,33.38,27.16,60.54,60.54,60.54h574.38c35.1,0,63.65,28.55,63.65,63.65v450.19Z"></path>
              <path class="cls-1" d="M432.31,405.98c0-6.45,5.23-11.67,11.67-11.67s11.67,5.23,11.67,11.67-5.23,11.67-11.67,11.67-11.67-5.23-11.67-11.67Z"></path>
            </g>
            <g>
              <path class="cls-1" d="M782.4,833.63H0v-3.1h782.4c33.38,0,60.54-27.16,60.54-60.54V144.59h3.1v625.39c0,35.1-28.55,63.65-63.65,63.65Z"></path>
              <path class="cls-1" d="M832.82,145.18c0-6.45,5.23-11.67,11.67-11.67s11.67,5.23,11.67,11.67-5.23,11.67-11.67,11.67-11.67-5.23-11.67-11.67Z"></path>
            </g>
            <g>
              <path class="cls-1" d="M1879.94,1182.92h-3.1v-288.74c0-35.1,28.55-63.65,63.65-63.65h369.47c33.38,0,60.54-27.16,60.54-60.54v-225.1c0-33.38-27.16-60.54-60.54-60.54h-937.64c-35.1,0-63.65-28.55-63.65-63.65v-158.12h3.1v158.12c0,33.38,27.16,60.54,60.54,60.54h937.64c35.1,0,63.65,28.55,63.65,63.65v225.1c0,35.1-28.55,63.65-63.65,63.65h-369.47c-33.38,0-60.54,27.16-60.54,60.54v288.74Z"></path>
              <path class="cls-1" d="M1298.54,263.16c0-6.45,5.23-11.67,11.67-11.67s11.67,5.23,11.67,11.67-5.23,11.67-11.67,11.67-11.67-5.23-11.67-11.67Z"></path>
            </g>
            <g>
              <path class="cls-1" d="M1572.57,1182.92h-3.1v-481.24c0-35.1,28.55-63.65,63.65-63.65h409.83c33.38,0,60.54-27.16,60.54-60.54V66.98h3.1v510.51c0,35.1-28.55,63.65-63.65,63.65h-409.83c-33.38,0-60.54,27.16-60.54,60.54v481.24Z"></path>
              <path class="cls-1" d="M2093.36,67.56c0-6.45,5.23-11.67,11.67-11.67s11.67,5.23,11.67,11.67-5.23,11.67-11.67,11.67-11.67-5.23-11.67-11.67Z"></path>
            </g>
            <g>
              <path class="cls-1" d="M3374.88,620.95h-652c-35.1,0-63.65-28.55-63.65-63.65V225.32h3.1v331.99c0,33.38,27.16,60.54,60.54,60.54h652v3.1Z"></path>
              <path class="cls-1" d="M2649.11,225.9c0-6.45,5.23-11.67,11.67-11.67s11.67,5.23,11.67,11.67-5.23,11.67-11.67,11.67-11.67-5.23-11.67-11.67Z"></path>
            </g>
            <g>
              <path class="cls-1" d="M2547.46,1182.92h-3.1v-214.23c0-35.1,28.55-63.65,63.65-63.65h378.78c33.38,0,60.54-27.16,60.54-60.54V35.93h3.1v808.57c0,35.1-28.55,63.65-63.65,63.65h-378.78c-33.38,0-60.54,27.16-60.54,60.54v214.23Z"></path>
              <path class="cls-1" d="M3037.21,36.51c0-6.45,5.23-11.67,11.67-11.67s11.67,5.23,11.67,11.67-5.23,11.67-11.67,11.67-11.67-5.23-11.67-11.67Z"></path>
            </g>
            <g>
              <path class="cls-1" d="M3374.88,774.64h-456.4c-35.1,0-63.65-28.55-63.65-63.65v-342.85h3.1v342.85c0,33.38,27.16,60.54,60.54,60.54h456.4v3.1Z"></path>
              <path class="cls-1" d="M2844.71,368.72c0-6.45,5.23-11.67,11.67-11.67s11.67,5.23,11.67,11.67-5.23,11.67-11.67,11.67-11.67-5.23-11.67-11.67Z"></path>
            </g>
            <g>
              <path class="cls-1" d="M1389.38,1182.92h-3.1v-403.62c0-35.1,28.55-63.65,63.65-63.65h990.42c33.38,0,60.54-27.16,60.54-60.54v-327.33h3.1v327.33c0,35.1-28.55,63.65-63.65,63.65h-990.42c-33.38,0-60.54,27.16-60.54,60.54v403.62Z"></path>
              <path class="cls-1" d="M2490.77,328.36c0-6.45,5.23-11.67,11.67-11.67s11.67,5.23,11.67,11.67-5.23,11.67-11.67,11.67-11.67-5.23-11.67-11.67Z"></path>
            </g>
            <g>
              <path class="cls-1" d="M2233.88,1182.92h-3.1v-226.65c0-33.38-27.16-60.54-60.54-60.54h-267.01c-35.1,0-63.65-28.55-63.65-63.65V160.12h3.1v671.96c0,33.38,27.16,60.54,60.54,60.54h267.01c35.1,0,63.65,28.55,63.65,63.65v226.65Z"></path>
              <path class="cls-1" d="M1829.45,160.7c0-6.45,5.23-11.67,11.67-11.67s11.67,5.23,11.67,11.67-5.23,11.67-11.67,11.67-11.67-5.23-11.67-11.67Z"></path>
            </g>
            <g>
              <path class="cls-1" d="M675.29,1182.92h-3.1v-537.12c0-35.1,28.55-63.65,63.65-63.65h689.26c33.38,0,60.54-27.16,60.54-60.54V11.09h3.1v510.51c0,35.1-28.55,63.65-63.65,63.65h-689.26c-33.38,0-60.54,27.16-60.54,60.54v537.12Z"></path>
              <path class="cls-1" d="M1475.51,11.67c0-6.45,5.23-11.67,11.67-11.67s11.67,5.23,11.67,11.67-5.23,11.67-11.67,11.67-11.67-5.23-11.67-11.67Z"></path>
            </g>
            <g>
              <path class="cls-1" d="M339.97,1182.92h-3.1v-198.71c0-35.1,28.55-63.65,63.65-63.65h726.52c33.38,0,60.54-27.16,60.54-60.54V144.59h3.1v715.43c0,35.1-28.55,63.65-63.65,63.65H400.52c-33.38,0-60.54,27.16-60.54,60.54v198.71Z"></path>
              <path class="cls-1" d="M1177.45,145.18c0-6.45,5.23-11.67,11.67-11.67s11.67,5.23,11.67,11.67-5.23,11.67-11.67,11.67-11.67-5.23-11.67-11.67Z"></path>
            </g>
            <g>
              <path class="cls-1" d="M499.87,751.35H0v-3.1h499.87c33.38,0,60.54-27.16,60.54-60.54V225.32h3.1v462.39c0,35.1-28.55,63.65-63.65,63.65Z"></path>
              <path class="cls-1" d="M550.29,225.9c0-6.45,5.23-11.67,11.67-11.67s11.67,5.23,11.67,11.67-5.23,11.67-11.67,11.67-11.67-5.23-11.67-11.67Z"></path>
            </g>
          </g>
        </g>
      </g>
    </g>
  </g>
</svg>