<?xml version="1.0"?>
<svg id="Layer_2" data-name="Layer 2" xmlns="http://www.w3.org/2000/svg" xmlns:xlink="http://www.w3.org/1999/xlink" viewBox="0 0 260 240.88">
  <defs>
    
    <clipPath id="clippath">
      <rect class="cls-1" width="260" height="240.88"></rect>
    </clipPath>
  </defs>
  <g id="Layer_1-2" data-name="Layer 1">
    <g class="cls-3">
      <path class="cls-2" d="M231.08,120.69v113.38c0,3.84-3.26,7.09-7.09,7.09H37.06c-3.84,0-7.09-3.26-7.09-7.09v-113.38c0-9.17,14.18-9.12,14.18,0v106.29h172.74v-106.29c0-9.12,14.19-9.12,14.19,0ZM257.42,113.06c-35.68-32.27-71.3-64.48-106.93-96.69-5.07-4.58-10.08-9.12-15.15-13.7C132.42,0,128.26,0,125.32,2.67,89.54,34.93,53.76,67.14,17.97,99.35c-5.07,4.59-10.14,9.12-15.2,13.71-6.83,6.13,3.25,16.16,10.03,10.03C48.58,90.87,84.31,58.66,120.1,26.45c3.41-3.04,6.77-6.08,10.18-9.18,33.97,30.72,67.94,61.44,101.92,92.1,5.07,4.59,10.08,9.12,15.15,13.71,6.77,6.08,16.85-3.9,10.08-10.03ZM202.92,41.01v-8.43h17.28v38.08c0,9.12,14.19,9.17,14.19,0V25.49c0-3.84-3.26-7.09-7.09-7.09h-31.46c-3.84,0-7.09,3.26-7.09,7.09v15.52c-.05,9.17,14.19,9.17,14.19,0Z"></path>
    </g>
  </g>
</svg>