<?xml version="1.0"?>
<svg id="Layer_2" data-name="Layer 2" xmlns="http://www.w3.org/2000/svg" xmlns:xlink="http://www.w3.org/1999/xlink" viewBox="0 0 217.89 241.88">
  <defs>
    
    <clipPath id="clippath">
      <rect class="cls-1" width="217.89" height="241.88"></rect>
    </clipPath>
  </defs>
  <g id="Layer_1-2" data-name="Layer 1">
    <g class="cls-3">
      <path class="cls-2" d="M109.1,7.26h-30.67c-14.06,15.29-37.79,23.49-71.19,24.58v91.73c1.53,27.68,14.01,52.17,34.28,71.43,16.59,15.77,39.12,29.05,67.58,39.85,28.46-10.8,50.99-24.08,67.58-39.85,20.29-19.29,32.77-43.79,34.28-71.49V31.84c-16.42-.54-30.47-2.78-42.18-6.73-12.18-4.1-21.86-10.06-29.02-17.85h-30.66ZM126.55,93.66l15.29-15.29.22-.21c2.82-2.7,6.45-4.06,10.08-4.06s7.44,1.42,10.29,4.27h.02c2.84,2.85,4.27,6.58,4.27,10.3s-1.43,7.44-4.27,10.29l-66.47,66.49c-1.41,1.41-3.7,1.41-5.11,0l-35.1-35.1-.2-.22c-2.7-2.81-4.05-6.45-4.05-10.08h-.02c0-3.72,1.42-7.45,4.27-10.29h.02c2.84-2.85,6.57-4.28,10.29-4.28s7.44,1.42,10.29,4.27c.04,0,14.02,14.01,17.06,17.05l33.14-33.15ZM146.95,83.48l.15-.15c1.41-1.33,3.22-1.99,5.05-1.99s3.77.72,5.19,2.14c1.43,1.43,2.14,3.31,2.14,5.2s-.71,3.77-2.13,5.19c-.04,0-51.72,51.71-63.94,63.92l-32.7-32.69c-1.34-1.41-2.01-3.23-2.01-5.04h.02c0-1.89.71-3.77,2.14-5.2,1.43-1.42,3.31-2.14,5.2-2.14s3.76.72,5.19,2.15l19.6,19.61c1.41,1.41,3.7,1.41,5.11,0l50.98-50.99ZM87.14,29.17h43.92c8.38,6.99,17.98,12.13,28.22,15.83,9.56,3.46,19.65,5.69,29.77,7.04v70.87c-1.35,23.6-13.32,44-31.18,59.62-14.02,12.24-31.29,21.54-48.77,28.76-17.48-7.22-34.76-16.51-48.77-28.76-17.86-15.62-29.81-35.98-31.18-59.58V52.04c10.12-1.35,20.21-3.58,29.77-7.04,10.23-3.71,19.85-8.83,28.22-15.83ZM56.46,38.22c9.8-3.55,18.95-8.47,26.8-15.22.66-.66,1.56-1.06,2.56-1.06h46.55c.84.01,1.68.3,2.36.89,7.9,6.83,17.12,11.81,27.01,15.4,9.92,3.59,20.53,5.78,31.16,7.03,1.89.12,3.39,1.69,3.39,3.61v74.05l-.02.2c-1.45,25.67-14.15,47.79-33.66,64.84-15.09,13.19-33.59,23.04-52.16,30.58-.84.34-1.81.37-2.71,0-18.56-7.55-37.07-17.39-52.16-30.58-19.28-16.85-32.17-39.04-33.64-64.58l-.03-.46V48.86c0-1.81,1.36-3.38,3.21-3.59,10.69-1.24,21.36-3.44,31.34-7.05ZM76.83.03h64.54c1.01.01,2.02.43,2.73,1.26,6.41,7.43,15.4,13.09,26.97,16.99,11.79,3.98,26.21,6.13,43.26,6.45h.24c2-.01,3.62,1.61,3.62,3.6v95.18l-.02.19c-1.59,29.85-14.86,55.95-36.52,76.54-17.54,16.67-41.31,30.61-71.3,41.84-.78.3-1.67.32-2.52,0-29.99-11.23-53.76-25.18-71.3-41.84C15.01,179.76,1.67,153.7.04,123.98l-.03-.47V28.33h.02c0-1.96,1.57-3.57,3.55-3.6,33.9-.59,57.35-8.35,70.36-23.26.66-.88,1.71-1.45,2.9-1.45Z"></path>
    </g>
  </g>
</svg>