<?xml version="1.0"?>
<svg id="Layer_2" data-name="Layer 2" xmlns="http://www.w3.org/2000/svg" viewBox="0 0 260.73 260.72">
  <defs>
    
  </defs>
  <g id="Layer_1-2" data-name="Layer 1">
    <path class="cls-1" d="M226.59,71.37c1.5,0,2.78-.53,3.85-1.59l28.7-28.7c.25-.26.48-.53.68-.82s.36-.61.5-.94c.14-.33.24-.67.31-1.02.07-.35.1-.7.1-1.06s-.03-.71-.1-1.06c-.07-.35-.17-.69-.31-1.02-.14-.33-.3-.64-.5-.94s-.43-.57-.68-.82L227.33,1.6c-.52-.49-1.11-.86-1.78-1.13-.66-.27-1.35-.4-2.06-.4s-1.41.13-2.07.4c-.66.26-1.26.64-1.78,1.13l-28.69,28.7c-1.06,1.06-1.6,2.34-1.6,3.84v29.55l-48.31,48.31-42.93-42.94c.85-2.2,1.55-4.45,2.08-6.74.54-2.3.91-4.62,1.12-6.97s.27-4.7.15-7.06c-.11-2.35-.39-4.69-.83-7.01-.44-2.31-1.04-4.59-1.8-6.82-.76-2.23-1.67-4.4-2.72-6.51-1.06-2.1-2.26-4.13-3.6-6.07-1.34-1.94-2.81-3.78-4.41-5.51-1.59-1.73-3.31-3.35-5.13-4.84s-3.74-2.86-5.75-4.09c-2.02-1.23-4.1-2.31-6.27-3.25-2.17-.94-4.39-1.72-6.66-2.35-2.28-.63-4.58-1.09-6.92-1.4S52.69-.02,50.34,0c-2.35.02-4.7.2-7.04.55-2.33.34-4.63.85-6.89,1.52-.45.13-.88.32-1.28.56s-.77.54-1.09.88-.61.71-.84,1.13-.4.84-.52,1.3c-.12.46-.18.92-.17,1.39,0,.47.07.93.19,1.39.13.45.31.89.54,1.29s.52.78.85,1.11l22.27,22.28-3.26,19.66-19.64,3.26-22.33-22.22c-.33-.33-.7-.62-1.11-.85-.41-.24-.84-.42-1.29-.55-.46-.12-.92-.19-1.39-.19-.47,0-.93.05-1.39.17-.45.12-.89.29-1.3.52s-.79.51-1.13.83-.63.69-.88,1.09-.43.83-.57,1.28c-.67,2.26-1.17,4.56-1.52,6.89S.03,47.97,0,50.33c-.02,2.36.13,4.71.43,7.05s.77,4.65,1.4,6.92c.63,2.28,1.41,4.49,2.35,6.66.94,2.17,2.02,4.26,3.25,6.27,1.23,2.01,2.59,3.93,4.08,5.75,1.5,1.83,3.11,3.54,4.85,5.14s3.57,3.07,5.51,4.41c1.94,1.34,3.96,2.54,6.07,3.6,2.11,1.06,4.28,1.97,6.52,2.73,2.23.76,4.51,1.35,6.82,1.8,2.32.44,4.66.72,7.01.83,2.35.11,4.71.07,7.06-.15s4.67-.59,6.97-1.13c2.3-.54,4.55-1.23,6.74-2.08l15.9,15.96-11.87,11.83c-.26.26-.48.53-.68.82s-.37.61-.51.94c-.14.33-.24.67-.31,1.02-.07.35-.1.7-.1,1.06s.04.71.1,1.06c.07.35.18.69.31,1.02s.31.65.51.94.42.57.68.82l1.65,1.64c.31.31.59.65.83,1.01.24.36.45.74.62,1.15s.3.82.38,1.26c.09.43.13.86.13,1.3s-.04.87-.13,1.3c-.08.43-.21.84-.38,1.25s-.37.79-.61,1.16-.52.7-.83,1.01-.65.59-1.01.83-.75.45-1.16.62c-.4.17-.82.29-1.25.38-.43.08-.86.13-1.3.13s-.87-.04-1.3-.13c-.43-.08-.85-.21-1.25-.38-.41-.17-.79-.38-1.16-.62-.36-.24-.7-.52-1.02-.83l-1.66-1.66c-1.06-1.06-2.34-1.59-3.84-1.59-1.5,0-2.78.53-3.84,1.58l-43.17,43.19c-1.01,1.01-1.97,2.07-2.88,3.18-.91,1.1-1.76,2.25-2.55,3.44-.8,1.19-1.53,2.42-2.2,3.68-.67,1.26-1.28,2.55-1.83,3.87s-1.03,2.67-1.44,4.03c-.41,1.37-.76,2.76-1.04,4.16s-.49,2.81-.63,4.23c-.14,1.42-.21,2.85-.21,4.28,0,1.43.07,2.85.21,4.28s.35,2.83.63,4.23.63,2.79,1.04,4.16c.42,1.36.9,2.71,1.44,4.03.55,1.32,1.16,2.61,1.83,3.87.67,1.26,1.41,2.48,2.2,3.67.8,1.19,1.65,2.33,2.55,3.44.91,1.11,1.86,2.17,2.88,3.18s2.07,1.97,3.18,2.88,2.25,1.76,3.44,2.55c1.19.79,2.41,1.53,3.67,2.2,1.26.68,2.55,1.29,3.87,1.83,1.32.55,2.67,1.03,4.04,1.44,1.36.42,2.75.77,4.15,1.04,1.4.28,2.81.49,4.23.63s2.85.21,4.28.21c1.43,0,2.85-.07,4.28-.21,1.42-.14,2.83-.34,4.23-.63,1.4-.28,2.79-.63,4.16-1.04,1.36-.42,2.71-.9,4.03-1.44s2.61-1.16,3.87-1.83c1.27-.67,2.49-1.41,3.68-2.2,1.19-.79,2.33-1.64,3.44-2.55,1.1-.91,2.16-1.86,3.17-2.88l43.18-43.18c.25-.25.48-.53.68-.82s.36-.61.51-.94c.14-.33.24-.67.31-1.02.07-.35.1-.7.1-1.06s-.03-.71-.1-1.06c-.07-.35-.17-.69-.31-1.02-.14-.33-.31-.64-.51-.94s-.43-.57-.68-.82l-1.65-1.65c-.31-.31-.59-.65-.83-1.01-.24-.36-.45-.75-.61-1.16-.17-.41-.3-.82-.38-1.25-.09-.43-.13-.86-.13-1.31s.04-.87.13-1.3c.08-.43.21-.84.38-1.25.17-.41.37-.79.61-1.16s.52-.7.83-1.01c.31-.3.65-.57,1.02-.81.36-.23.75-.44,1.16-.6.4-.16.82-.29,1.24-.37s.86-.13,1.3-.13.87.04,1.3.13.84.21,1.25.37c.4.16.79.36,1.15.6.37.23.71.51,1.02.81l1.66,1.65c.26.25.53.48.82.67.3.2.61.36.94.5.33.14.67.24,1.02.31.35.07.7.1,1.06.1s.71-.03,1.06-.1c.35-.07.69-.17,1.02-.31.33-.14.64-.3.94-.5.3-.19.57-.42.82-.67l11.83-11.86,15.91,15.91c-.85,2.2-1.54,4.45-2.07,6.74-.54,2.3-.91,4.62-1.12,6.96-.21,2.35-.26,4.7-.14,7.06.11,2.35.4,4.69.83,7.01.44,2.31,1.04,4.59,1.8,6.82.76,2.23,1.67,4.4,2.72,6.51,1.06,2.1,2.26,4.13,3.6,6.06,1.34,1.94,2.81,3.78,4.41,5.51,1.59,1.73,3.3,3.35,5.13,4.84s3.74,2.86,5.76,4.09c2.01,1.23,4.1,2.31,6.26,3.25,2.16.94,4.38,1.72,6.65,2.35s4.58,1.1,6.91,1.41c2.34.31,4.69.45,7.04.43,2.36-.02,4.7-.2,7.04-.54,2.33-.35,4.63-.85,6.89-1.52.45-.14.88-.32,1.28-.57s.77-.53,1.09-.88c.33-.34.61-.71.84-1.13s.4-.84.52-1.3c.12-.46.18-.92.17-1.4,0-.47-.07-.93-.19-1.39s-.31-.89-.54-1.29-.52-.78-.85-1.11l-22.27-22.28,3.26-19.67,19.64-3.26,22.28,22.27c.33.33.7.62,1.11.85.41.24.84.42,1.29.54.45.13.92.19,1.39.2.47,0,.94-.05,1.39-.17.46-.11.89-.29,1.3-.52s.79-.51,1.13-.83c.34-.33.63-.69.88-1.09s.43-.83.56-1.28c.67-2.26,1.18-4.56,1.53-6.89s.53-4.68.55-7.04-.12-4.71-.43-7.05-.78-4.65-1.4-6.92c-.63-2.28-1.41-4.49-2.35-6.66-.94-2.17-2.02-4.26-3.25-6.27-1.23-2.01-2.59-3.93-4.09-5.76-1.49-1.82-3.11-3.53-4.84-5.13s-3.57-3.07-5.51-4.41c-1.94-1.34-3.96-2.54-6.07-3.6-2.1-1.06-4.28-1.96-6.51-2.72-2.23-.76-4.51-1.35-6.83-1.8-2.31-.44-4.65-.72-7.01-.83-2.36-.11-4.71-.07-7.06.15s-4.67.59-6.97,1.13c-2.3.54-4.55,1.23-6.74,2.08l-42.93-42.94,48.31-48.31,29.65-.04ZM130.8,176.31c-.84-.57-1.73-1.06-2.66-1.47-.93-.41-1.89-.74-2.87-1-.98-.25-1.98-.42-2.99-.5-1.02-.08-2.03-.08-3.04.01-1.01.09-2.01.26-2.99.52-.98.26-1.94.6-2.86,1.02-.92.42-1.81.92-2.65,1.49-.84.57-1.63,1.21-2.36,1.92-.72.72-1.37,1.5-1.96,2.34-.58.84-1.09,1.72-1.52,2.64-.43.93-.78,1.88-1.05,2.87-.27.98-.44,1.98-.53,3.01-.09,1.02-.09,2.03-.01,3.05.09,1.02.26,2.02.52,3.01.27.98.61,1.94,1.04,2.87s.93,1.81,1.51,2.65l-39.53,39.53c-1.36,1.35-2.83,2.58-4.4,3.68-1.58,1.1-3.24,2.05-4.98,2.85-1.74.8-3.55,1.45-5.4,1.94-1.86.48-3.74.81-5.66.96-1.92.16-3.83.15-5.74-.03-1.91-.18-3.8-.53-5.65-1.04-1.85-.51-3.65-1.18-5.38-2.01-1.73-.82-3.38-1.8-4.94-2.91l46.08-46.09c.26-.25.49-.53.69-.82.21-.3.38-.61.52-.94.15-.33.25-.68.33-1.03.07-.35.11-.71.11-1.07,0-.36-.03-.72-.1-1.07s-.17-.7-.31-1.03-.3-.65-.51-.95c-.2-.3-.43-.57-.68-.83s-.53-.48-.83-.68c-.3-.2-.61-.37-.95-.51s-.68-.24-1.03-.31-.71-.1-1.07-.1c-.36,0-.72.04-1.07.11-.35.08-.69.18-1.03.33-.33.14-.65.31-.94.52-.3.2-.57.44-.82.69l-46.09,46.1c-1.13-1.56-2.1-3.21-2.93-4.94-.83-1.73-1.51-3.53-2.02-5.38-.52-1.85-.86-3.74-1.05-5.65-.18-1.92-.19-3.83-.04-5.75s.48-3.8.97-5.66,1.14-3.66,1.95-5.41,1.77-3.4,2.88-4.97c1.1-1.58,2.34-3.04,3.7-4.4l39.53-39.54c.84.58,1.72,1.09,2.65,1.52.92.43,1.88.78,2.87,1.05.98.26,1.99.44,3.01.53,1.02.09,2.04.09,3.06,0,1.02-.09,2.02-.27,3.01-.53.99-.27,1.94-.61,2.87-1.04s1.81-.94,2.65-1.53c.84-.58,1.62-1.24,2.34-1.96s1.38-1.51,1.96-2.34c.59-.83,1.1-1.72,1.53-2.64.43-.93.78-1.89,1.05-2.87.26-.99.44-1.99.53-3.01.09-1.02.09-2.04,0-3.05-.09-1.02-.27-2.02-.53-3.01-.27-.98-.61-1.94-1.04-2.87s-.94-1.81-1.53-2.65l8.22-8.22,34.83,34.83,11.58,11.55-8.26,8.22ZM192.77,173.96c.77-.37,1.55-.71,2.35-1.03.79-.32,1.59-.61,2.41-.88.81-.27,1.63-.51,2.46-.72.83-.21,1.66-.4,2.51-.56.84-.16,1.68-.29,2.53-.4.85-.1,1.7-.19,2.55-.24s1.71-.07,2.56-.07c.85,0,1.71.04,2.56.09.85.06,1.7.14,2.55.26.85.11,1.69.25,2.53.42s1.67.36,2.49.58c.83.22,1.65.46,2.46.74.81.27,1.61.57,2.4.9.79.32,1.57.67,2.34,1.05.77.38,1.53.77,2.27,1.19.74.43,1.47.87,2.19,1.34.71.47,1.41.96,2.09,1.47.69.52,1.35,1.05,2,1.61.65.56,1.28,1.14,1.89,1.73.61.6,1.2,1.21,1.78,1.85s1.12,1.29,1.65,1.96c.53.67,1.04,1.36,1.52,2.06s.95,1.42,1.39,2.16.85,1.48,1.24,2.24.76,1.54,1.1,2.32c.34.79.66,1.58.95,2.39.29.8.55,1.61.79,2.44.23.82.45,1.65.63,2.48.19.83.34,1.67.47,2.52.13.84.23,1.69.31,2.54.08.85.13,1.7.15,2.56.02.85.02,1.71-.02,2.56l-16.84-16.82c-.62-.62-1.35-1.07-2.18-1.33-.84-.27-1.69-.33-2.55-.19l-26.22,4.42c-.56.09-1.09.27-1.59.53-.51.26-.96.59-1.35.99-.4.4-.73.85-.99,1.35-.26.51-.44,1.04-.53,1.59l-4.42,26.22c-.14.86-.08,1.72.19,2.55.27.84.71,1.56,1.33,2.18l16.81,16.84c-2.75.08-5.47-.1-8.18-.58-2.71-.47-5.34-1.2-7.91-2.2-2.56-1.01-4.99-2.26-7.3-3.75s-4.44-3.21-6.4-5.14c-1.45-1.45-2.77-3.01-3.98-4.66s-2.28-3.4-3.22-5.22c-.94-1.82-1.73-3.7-2.38-5.65-.65-1.94-1.15-3.93-1.49-5.95s-.54-4.05-.57-6.1c-.03-2.05.09-4.09.38-6.12s.72-4.03,1.31-5.99,1.32-3.87,2.21-5.72c.24-.51.4-1.04.47-1.59.07-.56.06-1.11-.03-1.67-.1-.55-.28-1.07-.54-1.57-.26-.49-.59-.94-.99-1.34l-98.73-98.78c-.4-.4-.84-.73-1.34-.99-.5-.26-1.03-.44-1.58-.54-.55-.1-1.11-.11-1.67-.04-.56.08-1.09.23-1.6.47-.77.37-1.55.71-2.34,1.03s-1.6.61-2.41.88c-.81.27-1.64.51-2.46.72-.82.21-1.66.4-2.5.56-.84.16-1.68.3-2.53.4-.84.11-1.7.19-2.55.24-.85.05-1.71.08-2.56.07-.85,0-1.71-.03-2.56-.09s-1.7-.15-2.55-.26c-.84-.11-1.69-.26-2.53-.42s-1.67-.36-2.5-.58c-.82-.22-1.64-.46-2.45-.74-.81-.27-1.61-.57-2.4-.9-.79-.32-1.57-.67-2.34-1.05-.77-.37-1.53-.77-2.27-1.19-.74-.42-1.47-.87-2.19-1.34s-1.41-.96-2.09-1.48c-.68-.51-1.35-1.05-1.99-1.6-.65-.56-1.28-1.14-1.89-1.73s-1.2-1.21-1.77-1.85c-.57-.64-1.13-1.29-1.65-1.96-.53-.67-1.04-1.36-1.53-2.06s-.95-1.42-1.39-2.16-.85-1.48-1.24-2.24-.76-1.53-1.1-2.32c-.34-.78-.66-1.58-.95-2.38-.29-.8-.55-1.61-.79-2.44s-.45-1.65-.64-2.48c-.18-.83-.34-1.67-.47-2.52-.13-.85-.23-1.69-.31-2.55-.08-.85-.13-1.7-.15-2.56s-.02-1.71.02-2.56l16.84,16.82c.62.62,1.34,1.06,2.18,1.33.83.27,1.69.33,2.55.19l26.22-4.42c.56-.09,1.09-.27,1.59-.53s.95-.59,1.35-.99c.4-.4.72-.85.98-1.35.26-.51.43-1.03.53-1.59l4.43-26.22c.15-.87.08-1.72-.19-2.56-.27-.83-.71-1.56-1.33-2.18l-16.81-16.84c2.75-.08,5.47.13,8.18.59,2.71.47,5.34,1.21,7.9,2.22,2.56,1.01,4.99,2.26,7.29,3.75,2.31,1.49,4.44,3.2,6.4,5.13,1.45,1.45,2.78,3.01,3.98,4.66s2.28,3.39,3.22,5.21c.94,1.82,1.73,3.7,2.39,5.65.65,1.94,1.15,3.92,1.49,5.94.34,2.02.53,4.06.56,6.1.04,2.05-.09,4.09-.37,6.12-.28,2.03-.72,4.03-1.31,5.99s-1.32,3.87-2.2,5.72c-.24.51-.4,1.04-.47,1.59-.07.56-.06,1.11.04,1.66s.28,1.08.54,1.58c.26.49.59.94.98,1.34l98.76,98.76c.4.4.84.72,1.34.98.49.26,1.02.43,1.57.53.55.1,1.1.11,1.66.03.55-.07,1.08-.23,1.59-.47ZM200.23,36.39l23.26-23.27,24.13,24.13-23.27,23.26h-24.11v-24.11Z"></path>
  </g>
</svg>