<?xml version="1.0"?>
<svg id="Layer_2" data-name="Layer 2" xmlns="http://www.w3.org/2000/svg" xmlns:xlink="http://www.w3.org/1999/xlink" viewBox="0 0 266.67 263.16">
  <defs>
    
    <clipPath id="clippath">
      <rect class="cls-1" width="266.67" height="263.16"></rect>
    </clipPath>
  </defs>
  <g id="Layer_1-2" data-name="Layer 1">
    <g class="cls-3">
      <path class="cls-2" d="M218.16,139.28c-.19.77-.45,1.52-.76,2.25-.32.73-.69,1.43-1.11,2.09-.43.67-.9,1.3-1.43,1.9-.53.59-1.1,1.14-1.71,1.64-.62.5-1.27.95-1.96,1.34s-1.41.73-2.15,1.02c-.74.28-1.51.5-2.28.66-.78.16-1.56.26-2.36.29-.79.03-1.58,0-2.37-.09-.79-.09-1.57-.26-2.33-.47-.77-.22-1.51-.49-2.22-.84-.72-.34-1.41-.73-2.06-1.18-.66-.45-1.27-.95-1.84-1.5-.58-.55-1.1-1.14-1.58-1.77-.48-.63-.91-1.3-1.28-2-.37-.7-.68-1.43-.94-2.18-.2-.59-.29-1.21-.26-1.83.03-.63.19-1.22.46-1.79s.64-1.06,1.11-1.48c.47-.42,1-.73,1.59-.94s1.2-.3,1.83-.26c.63.03,1.22.18,1.79.45.57.28,1.06.64,1.48,1.11.42.47.73,1,.94,1.59.08.22.17.43.25.65.24.37.47.74.74,1.11.1.1.19.2.3.29.33.24.65.5.96.78.16.09.32.19.48.27.23.12.46.22.68.32.36.11.73.2,1.11.27h.05s.1.02.15.02c.16,0,.32.02.47.06-.09-.03-.13-.03-.2-.05.38-.02.76-.08,1.14-.11.21-.06.42-.13.63-.2.2-.07.36-.14.54-.21.31-.25.73-.44,1.05-.68l.15-.11c.1-.09.22-.19.3-.28.29-.31.54-.63.8-.96.11-.21.24-.43.34-.65.08-.17.15-.34.22-.51.03-.08.07-.16.12-.22.15-.6.41-1.15.78-1.65.37-.5.82-.91,1.35-1.23.53-.32,1.1-.53,1.71-.62.61-.09,1.22-.07,1.82.08.6.15,1.16.4,1.66.76s.92.81,1.24,1.34c.33.53.54,1.09.64,1.71.1.61.08,1.22-.06,1.82h.02ZM266.09,179.59c-.54,1.79-1.41,3.4-2.61,4.83s-2.63,2.57-4.29,3.42c-3.2,1.49-6.51,2.68-9.94,3.54-3.64,1.11-7.24,2.22-10.88,3.3-1.73,3.65-3.79,7.11-6.16,10.38-2.38,3.27-5.03,6.29-7.97,9.06-2.94,2.78-6.11,5.26-9.51,7.44s-6.97,4.04-10.72,5.55c.31,5.5.04,10.97-.81,16.41-1.11,7.06-2.55,15.43-7.97,17.58-.17.07-.34.13-.52.18-3.22,1.35-6.57,1.98-10.06,1.9-2.54.24-5.06.12-7.56-.37-2.51-.48-4.89-1.32-7.15-2.49-1.24-.75-2.34-1.67-3.3-2.77v-.05c-1.33-1.73-2.37-3.63-3.11-5.69-.73-2.06-1.14-4.18-1.2-6.36-.07-.88-.17-1.79-.2-2.66-15.26.92-30.46.49-45.64-1.28l-.54,5.96c0,3.39-.75,6.6-2.26,9.63-3.2,5.12-9.19,5.93-14.75,6.06-2.54.24-5.06.12-7.56-.36-2.5-.48-4.89-1.3-7.16-2.47-5.35-3.3-7.07-8.93-7.61-14.85-.47-5.02-.78-10.07-1.11-15.09-3.08-1.53-6.05-3.24-8.91-5.14s-5.59-3.97-8.19-6.21-5.05-4.64-7.35-7.19-4.43-5.24-6.39-8.06c-1.96-2.82-3.74-5.75-5.33-8.79-1.59-3.04-2.98-6.17-4.19-9.39-1.2-3.22-2.19-6.5-2.98-9.84-.79-3.34-1.36-6.72-1.72-10.14-2.99.47-6,.61-9.03.44-1.79,2.26-3.92,4.14-6.37,5.65-2.45,1.51-5.09,2.55-7.92,3.13-.6.15-1.21.18-1.83.09-.62-.08-1.2-.28-1.74-.59s-1.01-.7-1.4-1.19-.68-1.03-.86-1.62c-.16-.6-.2-1.21-.13-1.83.08-.61.28-1.2.58-1.74s.71-1.01,1.2-1.39c.49-.39,1.04-.66,1.64-.83,1.2-.24,2.36-.58,3.51-1.02.16-.06.32-.13.47-.2.24-.1.44-.24.68-.34.57-.31,1.12-.65,1.65-1.02.03,0,.1-.07.2-.17-1.04-.65-2.01-1.39-2.9-2.22-5.39-5.18-6.7-14.95-.64-20.2,1.43-1.27,3.07-2.15,4.92-2.65,1.84-.51,3.71-.57,5.58-.21.93.23,1.82.57,2.66,1.03s1.61,1.01,2.32,1.67,1.31,1.39,1.82,2.2c.52.81.92,1.67,1.21,2.58.64,1.87.98,3.79,1.02,5.76.03,1.97-.24,3.91-.81,5.79l.88-.1c.23,0,.45-.03.68-.06.2-.03.61-.1.64-.1.54-.1,1.08-.17,1.58-.28.14-7.32,1.32-14.47,3.54-21.45.89-2.76,1.92-5.45,3.09-8.1,1.17-2.65,2.47-5.22,3.92-7.73,1.44-2.51,3.01-4.94,4.7-7.29,1.7-2.34,3.51-4.59,5.44-6.75,1.93-2.16,3.97-4.21,6.11-6.15s4.39-3.77,6.72-5.48c2.34-1.71,4.76-3.29,7.26-4.74,2.5-1.46,5.07-2.78,7.71-3.96-3.73-7.93-5.6-16.27-5.6-25.04v-.51c0-.3,0-.6.04-.91.13-6.1,1.18-12.04,3.17-17.81h.1c.84-2.43,1.85-4.79,3.03-7.07.54-1.04,1.11-2.09,1.72-3.05h-.26c1.38-2.32,2.9-4.54,4.55-6.67.77-1.02,1.58-1.98,2.45-2.93h.31c.4-.47.84-.91,1.28-1.39.3-.3.57-.6.84-.91,2.46-2.41,5.1-4.61,7.92-6.6,1.4-.98,2.85-1.9,4.33-2.75,1.48-.86,3.01-1.65,4.56-2.37,1.56-.72,3.14-1.38,4.75-1.96,1.61-.58,3.24-1.1,4.9-1.54s3.33-.81,5.02-1.1c1.69-.3,3.39-.52,5.09-.67,1.71-.15,3.42-.22,5.13-.22s3.43.08,5.13.22c1.71.15,3.41.38,5.09.67s3.36.67,5.02,1.11c1.65.44,3.29.96,4.9,1.54,1.61.59,3.19,1.24,4.74,1.96s3.07,1.52,4.56,2.37c1.48.86,2.93,1.78,4.33,2.76,1.41.98,2.76,2.02,4.08,3.13,1.31,1.1,2.57,2.26,3.79,3.46,3.78,3.75,6.99,7.93,9.63,12.55,2.64,4.61,4.62,9.51,5.93,14.66,1.16,4.73,1.74,9.54,1.74,14.42,0,1.21-.03,2.42-.09,3.6-.07,1.11-.17,2.22-.31,3.3-.2,1.7-.5,3.36-.85,5.02,8.29-5.51,17.72-8.63,27.69-4,14.95,6.97,12.88,26.09,9.94,39.88,2.52,1.71,4.84,3.66,6.95,5.85s3.98,4.58,5.6,7.16c1.62,2.58,2.96,5.3,4.01,8.15,1.06,2.86,1.81,5.8,2.26,8.81,5.86.6,11.76,2.22,15.22,7.45,1.94,3.33,3.02,6.93,3.23,10.78.54,4.04,1.02,8.13,1.52,12.16.82,3.83.85,7.67.1,11.51ZM17.64,151.09c0-.33,0-.65-.03-.98,0-.11-.01-.22-.04-.34,0-.14-.02-.27-.07-.4-.07-.3-.17-.61-.23-.94-.03-.03-.04-.06-.04-.1v-.03c-.1-.24-.23-.47-.34-.68-.09-.13-.19-.26-.31-.37l-.16-.17s-.06-.05-.1-.07l-.07-.07c-.13-.01-.24-.03-.37-.06-.15-.03-.29-.04-.44-.03-.04.03,0,.03-.07.03-.2.06-.44.13-.68.2h-.02c-.17.1-.38.2-.54.31-.07.04-.14.1-.23.17-.14.14-.3.27-.3.3-.02,0-.03.02-.03.04-.14.2-.24.4-.34.57l-.04.03s-.03.07-.03.14c-.07.23-.14.51-.2.74,0,.41.04.84.04,1.25.11.35.2.71.27,1.07.03.08.05.16.07.24.04.03.04.1.1.17.14.23.23.51.36.74.1.14.2.27.27.38.11.16.24.32.37.47.2.2.41.41.61.57.09.1.2.19.3.27.2.11.4.25.57.41.23.13.47.3.71.44.05,0,.1.02.14.07.2-.61.44-1.18.57-1.76.07-.37.14-.74.2-1.08.02-.5.09-1.01.09-1.51ZM81.93,59.89c0,2.81.23,5.59.71,8.35.53,3.3,1.41,6.49,2.63,9.6,2.52,6.58,6.28,12.35,11.28,17.31.3.3.54.54.81.77,1.72,1.68,3.56,3.21,5.53,4.58,8.34-2.67,16.87-4.37,25.59-5.12-.81-.88-1.21-1.91-1.21-3.1v-5.12c-1.91-.15-3.74-.63-5.48-1.43-1.74-.8-3.3-1.89-4.65-3.24-1.53-1.51-2.7-3.25-3.53-5.23-.82-1.98-1.23-4.05-1.22-6.19-.01-.16.01-.32.07-.47.07-1.06.48-1.97,1.21-2.73.65-.67,1.44-1.09,2.35-1.29.91-.19,1.8-.1,2.67.24s1.56.91,2.08,1.68c.52.78.79,1.63.79,2.56,0,.23,0,.45.04.68.17,1.65.85,3.05,2.03,4.2.64.68,1.39,1.2,2.24,1.56.85.36,1.74.54,2.68.54h6.67c1.8,0,3.36-.61,4.68-1.85.09-.07.17-.15.23-.24.99-.98,1.62-2.16,1.89-3.54.07-.32.1-.65.1-.97.03-.12.04-.24.03-.37.01-.9-.16-1.77-.49-2.6-.33-.83-.82-1.57-1.46-2.21,0-.03-.03-.07-.07-.1-1.04-1.06-2.3-1.71-3.77-1.95-.38-.07-.76-.1-1.14-.1h-6.68c-.64,0-1.28-.03-1.92-.1-1.8-.22-3.51-.73-5.13-1.53-1.63-.8-3.07-1.84-4.34-3.13-1.53-1.5-2.7-3.24-3.53-5.22-.82-1.98-1.23-4.05-1.21-6.19v-.1c0-.13,0-.25.03-.37,0-.33.03-.65.07-.97,0-.13,0-.25.04-.38.26-2.67,1.17-5.11,2.71-7.31.58-.81,1.22-1.56,1.92-2.26,1.34-1.36,2.88-2.45,4.61-3.27s3.55-1.3,5.46-1.45h.03v-5.16c-.01-.18.01-.36.07-.54,0-.04.04-.07.04-.14s.03-.07.03-.1c.09-.53.27-1.02.53-1.48.26-.46.6-.86,1.01-1.21.41-.34.86-.61,1.36-.79.5-.19,1.02-.28,1.55-.28.6,0,1.18.11,1.74.34.56.23,1.05.56,1.48.98.43.43.76.92.99,1.48s.35,1.14.36,1.74v5.16c1,.08,1.99.26,2.96.53s1.9.63,2.81,1.07c.9.44,1.76.96,2.56,1.56s1.55,1.27,2.23,2.01c.69.74,1.3,1.53,1.83,2.39.54.85.99,1.74,1.36,2.68.37.93.65,1.89.85,2.88.19.98.29,1.98.3,2.99,0,.1,0,.2-.03.3-.01.23-.03.45-.07.68-.22.94-.68,1.73-1.38,2.4-.88.83-1.93,1.24-3.14,1.24-.61,0-1.2-.13-1.76-.36s-1.06-.57-1.49-1c-.43-.43-.77-.93-1-1.49s-.35-1.15-.36-1.76c0-.46-.04-.91-.13-1.35s-.22-.89-.39-1.31-.39-.82-.64-1.2c-.25-.38-.54-.73-.86-1.05-.32-.32-.67-.61-1.05-.86-.38-.25-.78-.46-1.2-.64-.42-.17-.85-.3-1.3-.39-.45-.08-.9-.13-1.35-.13h-6.65c-.92,0-1.81.17-2.66.52-.85.35-1.6.86-2.26,1.51-.49.47-.89,1.03-1.18,1.65-.54.88-.82,1.83-.84,2.86-.03.13-.04.27-.04.4,0,.23,0,.47.04.71.17,1.65.85,3.05,2.03,4.21.03.04.03.07.07.07.64.65,1.38,1.15,2.22,1.51.84.35,1.72.53,2.63.53h6.67c.99,0,1.97.09,2.95.28.97.18,1.92.45,2.84.81.93.36,1.81.8,2.65,1.32.84.52,1.63,1.11,2.36,1.78s1.4,1.4,1.99,2.19,1.12,1.63,1.56,2.52.8,1.81,1.08,2.76c.28.95.46,1.92.55,2.91l.1.7c0,.31.07.57.07.84,0,.47-.04.91-.07,1.38-.03.24-.03.47-.06.74-.13.88-.32,1.74-.57,2.59-.81,2.57-2.16,4.8-4.07,6.7-1.72,1.74-3.75,3.03-6.06,3.84-1.32.46-2.68.74-4.07.84v5.12c0,.98-.3,1.87-.88,2.66,9.76-.3,19.41.54,28.96,2.53.89-.73,1.72-1.51,2.53-2.32,3.56-3.51,6.51-7.47,8.85-11.88,2.34-4.41,3.97-9.07,4.89-13.98.17-.78.3-1.58.4-2.4.2-1.48.38-2.99.44-4.51.06-.95.1-1.92.1-2.9,0-1.64-.09-3.26-.25-4.89s-.41-3.23-.73-4.83c-.32-1.6-.72-3.18-1.19-4.74-.47-1.56-1.03-3.09-1.66-4.6-.63-1.51-1.32-2.98-2.09-4.42s-1.61-2.83-2.52-4.19c-.91-1.35-1.88-2.66-2.92-3.92s-2.13-2.47-3.29-3.62c-1.15-1.16-2.36-2.25-3.63-3.28-1.26-1.04-2.57-2.01-3.93-2.91-1.36-.91-2.76-1.74-4.2-2.51-1.44-.77-2.91-1.47-4.42-2.09-1.51-.62-3.04-1.17-4.6-1.65s-3.15-.87-4.74-1.19-3.21-.56-4.84-.72c-1.62-.16-3.25-.24-4.88-.24-5.11-.03-10.1.72-14.98,2.25s-9.41,3.77-13.58,6.71c-2.39,1.68-4.62,3.54-6.7,5.59-.24.27-.47.51-.71.78-1.23,1.26-2.39,2.58-3.47,3.97-1.93,2.48-3.62,5.11-5.05,7.91-3.01,5.9-4.75,12.16-5.22,18.77-.1,1.08-.17,2.22-.17,3.33-.04.29-.06.59-.07.89ZM256.7,169.01c-.44-3.47-.88-6.97-1.32-10.47-.13-2.51-.61-4.94-1.45-7.31-1.85-4.04-7.31-4.15-11.15-4.38-.84-.05-1.62-.29-2.34-.73-.99-.74-1.79-1.65-2.4-2.72-.61-1.07-.98-2.22-1.12-3.45-1.78-8.44-2.68-17.65-17.44-25.97-.44-.27-.83-.6-1.16-.99-.34-.4-.6-.83-.8-1.31-.19-.48-.31-.97-.34-1.49-.03-.52.02-1.03.14-1.53,2.09-9.06,6.97-27.75-4.71-32.6-10.78-4.45-20.98,5.35-28.12,12.09-.48.46-1.03.81-1.66,1.05-2.59,4.4-5.69,8.4-9.29,12.02-.98.98-1.95,1.89-2.96,2.77-.13.47-.33.91-.59,1.32-.27.41-.59.76-.97,1.06-.39.31-.8.54-1.26.71s-.93.26-1.42.28c-.47.05-.93.02-1.38-.1-4-.94-8.04-1.65-12.13-2.13-8.45-.98-16.9-1.02-25.36-.11-8.46.9-16.71,2.72-24.77,5.47-.14.03-.23.07-.34.1-.29.08-.58.14-.89.16-.3.02-.6,0-.9-.04-.3-.04-.59-.12-.86-.23-.28-.11-.55-.24-.8-.41-.25-.17-.48-.35-.69-.57-.21-.21-.4-.45-.56-.71-.16-.26-.29-.52-.39-.81-.1-.28-.17-.57-.21-.88-2.08-1.52-4.06-3.17-5.93-4.95-.3-.27-.57-.54-.94-.91-2.61-2.61-4.96-5.45-7.05-8.51-5.52,2.35-10.66,5.34-15.42,8.99-4.76,3.65-8.99,7.83-12.7,12.54-1.68,2.08-3.24,4.26-4.67,6.52-1.44,2.26-2.73,4.59-3.9,7.01-1.16,2.41-2.19,4.88-3.07,7.41s-1.61,5.1-2.2,7.71c-.59,2.61-1.02,5.25-1.3,7.91-.29,2.66-.42,5.33-.39,8.01.02,2.67.2,5.34.53,8,.33,2.66.81,5.28,1.44,7.89.66,2.57,1.46,5.09,2.4,7.58.94,2.48,2.01,4.91,3.2,7.27s2.52,4.66,3.97,6.89,3.02,4.36,4.69,6.41c1.68,2.05,3.47,4.01,5.36,5.87,1.9,1.86,3.88,3.61,5.96,5.25,2.08,1.65,4.25,3.17,6.5,4.58,2.24,1.41,4.56,2.69,6.95,3.84.57.08,1.11.26,1.62.53s.96.62,1.34,1.05.68.91.9,1.45c.21.53.33,1.09.34,1.66.23,3.41.46,6.81.71,10.21.23,3.13.27,6.33.71,9.43.03.03.27,1.24.3,1.42.15.63.33,1.25.57,1.85.23.34.44.7.64,1.08l.04.03c.24.2.46.42.68.64.07,0,.81.6.98.7.23.1.44.24.68.34.06.04.13.06.2.07.57.17,1.11.37,1.69.51.41.05.82.14,1.21.24,2.4.24,4.8.29,7.21.13.64-.03,1.24-.07,1.89-.13.09,0,.18,0,.27-.04.27-.03.54-.1.81-.14.17-.03,1.15-.37,1.24-.37.26-.12.51-.26.74-.41.14-.14.2-.23.27-.27.1-.17.2-.38.31-.54,0-.1.3-1.18.34-1.35.03-.13.05-.25.07-.38v.14c.02-.08.03-.16.03-.23,0-.26.03-.52.07-.78.1-.78.14-1.58.23-2.39.27-3.33.57-6.7.88-10.07.03-.28.07-.54.14-.81.04-.59.19-1.15.45-1.68.26-.53.6-1,1.04-1.4.44-.4.93-.7,1.48-.92s1.12-.32,1.71-.31c18.11,2.41,36.28,2.91,54.49,1.47.14,0,.27.03.41.03,1.22.15,2.28.64,3.2,1.45,3.18,2.97.58,9.09,2.97,14.91,1.12,2.71,2.42,3.2,2.71,3.29.42.14,1.68.41,2.27.52.34.06.68.11,1.02.17l.36.04c1.43.14,2.87.19,4.31.14.78-.02,1.55-.1,2.32-.16h.07c.33-.04.66-.09.97-.17,2.22-.65,3.33-.97,3.97-1.74.42-.97.73-1.98.95-3.02.28-1.02.53-2.04.74-3.07.09-.44.18-.89.25-1.33.03-.12.15-.87.19-1.14,0-.13.12-1.05.14-1.19.04-.45.08-.9.11-1.35.1-1.45.11-2.95.11-3.16.03-3.01-.25-7.45-.26-7.67-.18-2.6.42-5.01,1.79-7.22.86-1.3,1.95-2.38,3.27-3.24.07-.03.1-.06.17-.06,7.13-2.59,13.46-6.49,18.99-11.69,2.76-2.56,5.22-5.39,7.38-8.47,2.16-3.07,3.98-6.33,5.49-9.77.16-.48.39-.93.69-1.35.3-.42.65-.78,1.06-1.08.41-.31.85-.55,1.33-.72.48-.17.98-.27,1.49-.28,5.89-1.76,11.95-3.23,17.68-5.42.89-.21,1.68-.61,2.39-1.18.7-.57,1.26-1.27,1.65-2.08.46-2.72.36-5.42-.3-8.09Z"></path>
    </g>
  </g>
</svg>