<?xml version="1.0"?>
<svg id="Layer_2" data-name="Layer 2" xmlns="http://www.w3.org/2000/svg" viewBox="0 0 301.28 301.87">
  <defs>
    
  </defs>
  <g id="Layer_1-2" data-name="Layer 1">
    <g>
      <path class="cls-1" d="M291.87,217.13c-.41,0-.82-.06-1.22-.16l-46.84-12.55c-1.94,1.04-3.91,2.01-5.9,2.92-1.99.91-4.02,1.77-6.06,2.56s-4.11,1.52-6.2,2.19c-2.09.67-4.2,1.27-6.33,1.81-2.13.54-4.27,1.01-6.43,1.42-2.16.41-4.32.75-6.5,1.03-2.18.28-4.36.48-6.55.63-2.19.15-4.39.22-6.58.23s-4.39-.04-6.58-.16c-2.19-.13-4.38-.31-6.56-.56-2.18-.26-4.35-.57-6.51-.96s-4.31-.84-6.44-1.35c-2.14-.52-4.25-1.1-6.35-1.74-2.1-.65-4.17-1.35-6.23-2.12s-4.08-1.6-6.09-2.49c-2.01-.89-3.98-1.84-5.93-2.85-1.95-1.02-3.86-2.08-5.74-3.21-1.89-1.13-3.73-2.31-5.54-3.55-1.81-1.24-3.58-2.53-5.31-3.88s-3.42-2.74-5.07-4.2c-1.65-1.45-3.25-2.95-4.81-4.49s-3.06-3.14-4.52-4.78c-1.46-1.64-2.87-3.32-4.23-5.05s-2.66-3.48-3.91-5.29c-1.25-1.8-2.45-3.64-3.59-5.52-1.14-1.88-2.22-3.78-3.24-5.72-1.02-1.94-1.98-3.91-2.89-5.91s-1.75-4.03-2.53-6.07c-.78-2.05-1.5-4.13-2.16-6.22s-1.24-4.21-1.78-6.34c-.53-2.13-.99-4.27-1.39-6.43-.4-2.16-.73-4.32-1-6.5-.27-2.18-.46-4.36-.6-6.56-.14-2.19-.2-4.38-.2-6.57s.06-4.39.19-6.58c.14-2.19.33-4.38.59-6.56.27-2.18.59-4.34.99-6.51.4-2.16.86-4.3,1.39-6.43.52-2.13,1.11-4.24,1.77-6.34.66-2.09,1.37-4.17,2.15-6.22.78-2.05,1.62-4.08,2.52-6.08s1.86-3.97,2.89-5.91c1.02-1.94,2.1-3.85,3.24-5.73,1.14-1.88,2.33-3.72,3.58-5.52,1.25-1.81,2.55-3.57,3.91-5.3s2.77-3.41,4.22-5.05c1.46-1.64,2.97-3.23,4.52-4.79,1.55-1.55,3.16-3.05,4.8-4.5s3.33-2.85,5.06-4.2,3.5-2.65,5.31-3.89c1.81-1.24,3.66-2.43,5.54-3.56s3.79-2.2,5.74-3.22c1.95-1.01,3.92-1.97,5.92-2.86,2.01-.9,4.04-1.73,6.09-2.5,2.06-.78,4.13-1.48,6.23-2.13,2.09-.65,4.21-1.22,6.34-1.74,2.13-.52,4.28-.97,6.44-1.36,2.16-.39,4.33-.71,6.51-.96s4.36-.45,6.56-.57c2.19-.13,4.38-.18,6.58-.17,2.19,0,4.39.08,6.57.22,2.19.15,4.38.35,6.55.63,2.18.28,4.34.61,6.5,1.02s4.3.88,6.43,1.41c2.13.54,4.24,1.14,6.33,1.8,2.09.66,4.16,1.39,6.21,2.18,2.05.79,4.07,1.64,6.06,2.55,2,.91,3.96,1.88,5.9,2.91s3.84,2.12,5.71,3.27,3.71,2.35,5.51,3.61c1.8,1.26,3.56,2.57,5.28,3.93s3.4,2.78,5.03,4.24c1.64,1.46,3.22,2.98,4.77,4.54s3.03,3.17,4.47,4.82c1.45,1.66,2.84,3.35,4.18,5.09,1.34,1.73,2.63,3.51,3.86,5.32,1.23,1.82,2.41,3.67,3.53,5.55,1.13,1.89,2.19,3.81,3.19,5.76,1.01,1.95,1.95,3.93,2.83,5.94.89,2.01,1.71,4.04,2.47,6.1.76,2.06,1.46,4.14,2.09,6.23s1.21,4.22,1.71,6.35c.51,2.14.95,4.28,1.33,6.44.38,2.16.69,4.33.94,6.52s.42,4.36.54,6.56.16,4.39.14,6.58c-.02,2.2-.1,4.39-.26,6.58-.15,2.19-.37,4.37-.66,6.55-.28,2.18-.64,4.34-1.05,6.49s-.9,4.3-1.44,6.42-1.16,4.23-1.83,6.32-1.41,4.16-2.21,6.2c-.8,2.04-1.66,4.06-2.58,6.05-.92,1.99-1.91,3.95-2.94,5.89-1.04,1.93-2.14,3.83-3.3,5.7-1.15,1.86-2.36,3.69-3.63,5.48l14.89,39.51c.14.35.22.72.27,1.1.04.38.04.76,0,1.14-.05.38-.14.74-.27,1.1-.14.35-.31.69-.53,1-.21.31-.47.6-.75.85-.29.25-.6.46-.93.64-.34.18-.69.31-1.06.4-.37.09-.74.14-1.13.14ZM193.01,10c-1.88,0-3.76.05-5.64.15-1.88.11-3.75.27-5.62.48-1.86.21-3.72.47-5.58.79s-3.7.69-5.53,1.11c-1.83.42-3.65.9-5.46,1.42-1.8.53-3.59,1.1-5.36,1.73-1.78.63-3.53,1.31-5.26,2.04s-3.44,1.51-5.13,2.33c-1.69.82-3.35,1.7-4.99,2.62-1.64.92-3.25,1.89-4.83,2.9-1.59,1.02-3.14,2.07-4.66,3.17-1.53,1.1-3.02,2.24-4.47,3.43s-2.88,2.42-4.27,3.68c-1.39,1.27-2.74,2.57-4.05,3.92-1.32,1.34-2.59,2.72-3.82,4.14-1.23,1.42-2.43,2.87-3.58,4.36-1.15,1.48-2.26,3-3.32,4.55-1.07,1.55-2.08,3.13-3.06,4.73-.97,1.6-1.9,3.24-2.79,4.9-.88,1.66-1.71,3.34-2.5,5.05-.79,1.7-1.52,3.43-2.21,5.18s-1.32,3.52-1.91,5.31-1.12,3.58-1.6,5.4-.92,3.65-1.3,5.49c-.38,1.84-.7,3.69-.98,5.55-.27,1.86-.49,3.72-.66,5.59-.17,1.88-.28,3.75-.34,5.63-.06,1.88-.06,3.76-.02,5.64s.15,3.76.3,5.63c.16,1.88.36,3.74.63,5.6.26,1.86.57,3.71.94,5.56.37,1.84.79,3.68,1.26,5.49.47,1.82.99,3.63,1.57,5.42s1.2,3.56,1.88,5.32c.67,1.76,1.4,3.49,2.17,5.2.77,1.71,1.59,3.4,2.46,5.07s1.79,3.31,2.75,4.92,1.97,3.2,3.03,4.76c1.05,1.56,2.15,3.08,3.29,4.58s2.32,2.95,3.55,4.38,2.49,2.82,3.79,4.17c1.31,1.35,2.65,2.67,4.03,3.95,1.38,1.28,2.79,2.52,4.24,3.71,1.45,1.19,2.93,2.35,4.45,3.46,1.52,1.11,3.06,2.18,4.64,3.2,1.57,1.03,3.18,2.01,4.81,2.94,1.63.93,3.29,1.82,4.97,2.66s3.39,1.63,5.11,2.37c1.73.74,3.48,1.43,5.24,2.07s3.55,1.23,5.35,1.77c1.8.54,3.62,1.03,5.45,1.46s3.67.82,5.52,1.15c1.85.33,3.71.61,5.58.83,1.86.23,3.73.4,5.61.52,1.88.12,3.75.18,5.63.2,1.88.01,3.76-.03,5.64-.13,1.88-.09,3.75-.24,5.62-.45,1.86-.2,3.73-.46,5.58-.77,1.85-.31,3.7-.67,5.53-1.09,1.83-.41,3.66-.88,5.46-1.4,1.81-.52,3.59-1.09,5.37-1.71s3.53-1.29,5.27-2.01c1.74-.72,3.45-1.49,5.15-2.31s3.36-1.68,5-2.6c1.11-.61,2.28-.75,3.51-.43l39.8,10.66-12.55-33.29c-.28-.75-.36-1.52-.26-2.31s.41-1.51.88-2.16c1.36-1.82,2.66-3.69,3.89-5.61,1.23-1.92,2.39-3.87,3.49-5.86,1.09-1.99,2.12-4.03,3.07-6.09s1.84-4.16,2.65-6.29c.81-2.13,1.55-4.28,2.21-6.46s1.24-4.38,1.76-6.59.94-4.45,1.3-6.7.63-4.51.83-6.78c.2-2.27.32-4.54.36-6.81s0-4.55-.11-6.83c-.11-2.27-.31-4.54-.58-6.8-.27-2.26-.62-4.51-1.05-6.74-.43-2.23-.94-4.45-1.52-6.66-.58-2.2-1.24-4.38-1.97-6.54-.73-2.15-1.54-4.28-2.42-6.38s-1.83-4.17-2.85-6.2c-1.02-2.04-2.11-4.03-3.28-5.99-1.16-1.96-2.39-3.88-3.68-5.75s-2.65-3.7-4.07-5.48c-1.42-1.78-2.9-3.51-4.44-5.19-1.54-1.68-3.14-3.3-4.79-4.86s-3.35-3.08-5.11-4.53-3.56-2.84-5.41-4.16-3.74-2.58-5.68-3.78c-1.94-1.19-3.92-2.32-5.93-3.38-2.02-1.06-4.07-2.04-6.15-2.96-2.09-.92-4.2-1.76-6.34-2.53-2.14-.77-4.31-1.46-6.5-2.08-2.19-.62-4.4-1.16-6.63-1.63-2.22-.47-4.47-.85-6.72-1.17s-4.52-.55-6.79-.7c-2.27-.16-4.55-.23-6.82-.23Z"></path>
      <path class="cls-1" d="M9.41,301.87c-.39,0-.76-.05-1.13-.14-.37-.09-.72-.22-1.06-.4-.34-.18-.65-.39-.94-.65-.28-.25-.54-.53-.75-.85-.22-.31-.4-.65-.53-1-.14-.36-.22-.72-.27-1.1-.05-.38-.05-.76,0-1.13.04-.38.14-.74.27-1.1l14.89-39.5c-1.18-1.67-2.31-3.37-3.4-5.1s-2.12-3.5-3.11-5.29c-.98-1.79-1.92-3.61-2.8-5.46-.88-1.85-1.71-3.71-2.49-5.61-.78-1.89-1.5-3.81-2.17-5.74s-1.28-3.89-1.84-5.85-1.06-3.95-1.5-5.95c-.45-2-.83-4.01-1.17-6.03-.33-2.02-.6-4.05-.82-6.08-.22-2.03-.38-4.07-.47-6.11s-.14-4.09-.13-6.14.09-4.09.22-6.13c.14-2.04.32-4.08.57-6.11.24-2.03.55-4.05.91-6.07.36-2.02.78-4.02,1.26-6.01.47-1.99,1.01-3.96,1.59-5.93.59-1.96,1.23-3.9,1.93-5.82s1.45-3.82,2.26-5.71c.81-1.88,1.67-3.73,2.58-5.57.91-1.83,1.88-3.64,2.89-5.41,1.02-1.78,2.08-3.53,3.19-5.24,1.11-1.72,2.27-3.4,3.48-5.05,1.21-1.65,2.46-3.27,3.76-4.85,1.3-1.58,2.65-3.12,4.03-4.63,1.39-1.5,2.82-2.96,4.29-4.39,1.47-1.42,2.98-2.8,4.53-4.14,1.55-1.34,3.14-2.63,4.76-3.88,1.62-1.24,3.28-2.45,4.97-3.6s3.41-2.26,5.17-3.31c1.75-1.05,3.54-2.06,5.34-3.01,1.81-.95,3.65-1.85,5.51-2.71,1.86-.85,3.74-1.65,5.65-2.39.58-.23,1.18-.33,1.81-.32s1.22.15,1.8.4,1.07.6,1.51,1.05c.43.45.77.96.99,1.55.23.58.34,1.19.32,1.81-.01.63-.15,1.22-.4,1.79s-.6,1.08-1.05,1.51c-.45.43-.97.76-1.55.99-1.77.68-3.51,1.42-5.23,2.21-1.72.79-3.42,1.63-5.09,2.51-1.67.89-3.32,1.82-4.94,2.8s-3.21,2.01-4.77,3.08c-1.56,1.07-3.09,2.18-4.59,3.34-1.49,1.16-2.96,2.36-4.39,3.6-1.43,1.24-2.82,2.53-4.17,3.85s-2.67,2.68-3.94,4.08c-1.28,1.4-2.51,2.83-3.7,4.3-1.2,1.47-2.34,2.97-3.45,4.51-1.1,1.54-2.17,3.1-3.18,4.7-1.02,1.6-1.99,3.22-2.91,4.88s-1.8,3.33-2.63,5.03-1.6,3.43-2.33,5.18c-.73,1.74-1.41,3.52-2.03,5.3-.63,1.78-1.2,3.59-1.72,5.41-.53,1.82-.99,3.65-1.41,5.5-.42,1.84-.78,3.7-1.09,5.57-.31,1.87-.57,3.74-.77,5.63s-.35,3.77-.44,5.66-.14,3.79-.12,5.68.08,3.78.21,5.67.3,3.77.53,5.65c.23,1.88.52,3.75.86,5.61.34,1.86.73,3.71,1.18,5.55.45,1.84.95,3.67,1.49,5.48.55,1.81,1.16,3.6,1.81,5.38.66,1.78,1.36,3.53,2.11,5.27s1.56,3.45,2.42,5.14c.85,1.69,1.76,3.35,2.7,4.99.95,1.64,1.94,3.24,2.98,4.83,1.04,1.58,2.13,3.13,3.26,4.65.48.64.77,1.36.89,2.15.11.8.02,1.57-.26,2.32l-12.55,33.29,39.8-10.67c1.22-.32,2.4-.18,3.51.43,1.54.85,3.09,1.66,4.67,2.43s3.18,1.5,4.79,2.19c1.62.68,3.25,1.33,4.9,1.92,1.65.6,3.32,1.16,5,1.66,1.68.51,3.38.97,5.08,1.4,1.71.42,3.42.79,5.15,1.12,1.72.33,3.46.61,5.2.84s3.48.42,5.24.56c1.75.15,3.5.24,5.26.29s3.52.05,5.27,0,3.51-.14,5.26-.28c1.75-.14,3.49-.32,5.23-.56,1.74-.23,3.47-.51,5.2-.83,1.72-.33,3.44-.7,5.15-1.11,1.7-.42,3.4-.88,5.08-1.38,1.68-.51,3.35-1.06,5.01-1.66,1.65-.59,3.29-1.23,4.91-1.92,1.61-.68,3.21-1.41,4.8-2.18,1.58-.77,3.14-1.58,4.67-2.43s3.05-1.74,4.54-2.67c1.49-.93,2.95-1.91,4.39-2.92s2.84-2.06,4.23-3.14c1.38-1.08,2.73-2.21,4.05-3.36s2.61-2.35,3.87-3.57c1.26-1.22,2.48-2.48,3.67-3.78s2.34-2.61,3.46-3.97c1.12-1.35,2.2-2.73,3.25-4.15,1.05-1.41,2.06-2.84,3.03-4.31.97-1.46,1.9-2.95,2.79-4.46.89-1.52,1.74-3.05,2.55-4.61.81-1.56,1.57-3.14,2.3-4.74.72-1.6,1.41-3.22,2.04-4.85.23-.58.56-1.1.99-1.55.43-.45.94-.8,1.51-1.05.57-.26,1.17-.39,1.79-.4.63-.02,1.23.09,1.81.32.58.23,1.1.56,1.55.99.45.43.8.93,1.05,1.51s.39,1.17.4,1.8-.09,1.22-.32,1.81c-.69,1.78-1.43,3.53-2.21,5.27-.78,1.73-1.61,3.45-2.48,5.14-.88,1.69-1.8,3.36-2.76,5.01-.96,1.64-1.97,3.26-3.02,4.84-1.05,1.59-2.14,3.15-3.27,4.68-1.13,1.54-2.3,3.04-3.51,4.51s-2.46,2.91-3.74,4.31c-1.28,1.41-2.6,2.78-3.96,4.11-1.35,1.33-2.74,2.64-4.17,3.9s-2.89,2.48-4.38,3.67-3.01,2.33-4.56,3.43-3.13,2.17-4.74,3.19c-1.6,1.02-3.24,2-4.9,2.93-1.66.94-3.34,1.82-5.05,2.67-1.71.84-3.43,1.65-5.18,2.4-1.74.76-3.51,1.46-5.3,2.12s-3.59,1.28-5.41,1.84-3.65,1.08-5.49,1.55c-1.84.47-3.7.89-5.57,1.26-1.86.38-3.74.7-5.63.97s-3.78.49-5.67.67-3.79.3-5.7.37c-1.9.07-3.8.09-5.71.07-1.9-.03-3.8-.11-5.7-.23-1.9-.13-3.8-.31-5.68-.54-1.89-.23-3.78-.51-5.65-.83s-3.74-.71-5.59-1.13c-1.86-.43-3.7-.9-5.53-1.43-1.83-.53-3.65-1.09-5.44-1.71-1.8-.62-3.58-1.29-5.35-2s-3.51-1.47-5.23-2.28c-1.73-.81-3.43-1.66-5.11-2.55l-46.84,12.55c-.4.1-.81.16-1.22.16Z"></path>
      <path class="cls-1" d="M145.93,132.39c-1.23,0-2.46-.12-3.67-.36-1.21-.24-2.39-.6-3.53-1.07s-2.23-1.05-3.26-1.74c-1.03-.69-1.98-1.47-2.85-2.34s-1.66-1.82-2.34-2.85c-.69-1.03-1.27-2.11-1.74-3.26-.47-1.14-.83-2.32-1.07-3.53-.24-1.21-.36-2.44-.36-3.67s.12-2.46.36-3.68c.24-1.21.6-2.39,1.07-3.53s1.05-2.23,1.74-3.26,1.47-1.98,2.34-2.85,1.82-1.66,2.85-2.34c1.03-.69,2.11-1.27,3.26-1.74,1.14-.47,2.32-.83,3.53-1.07,1.21-.24,2.44-.36,3.67-.36s2.46.12,3.68.36c1.21.24,2.39.6,3.53,1.07,1.14.47,2.23,1.06,3.26,1.74,1.03.68,1.98,1.46,2.85,2.34s1.66,1.83,2.34,2.85c.68,1.03,1.27,2.11,1.74,3.26.47,1.14.83,2.32,1.07,3.53.24,1.21.36,2.44.36,3.68s-.12,2.46-.36,3.67c-.24,1.21-.6,2.39-1.07,3.53-.47,1.15-1.06,2.23-1.74,3.26-.69,1.03-1.47,1.98-2.34,2.85s-1.83,1.66-2.85,2.34-2.11,1.27-3.26,1.74-2.32.83-3.53,1.07c-1.21.24-2.44.36-3.68.36ZM145.93,104.15c-.61,0-1.23.06-1.83.18-.61.12-1.2.3-1.77.54-.57.23-1.11.53-1.63.87s-.99.73-1.43,1.17c-.44.44-.83.92-1.17,1.43-.34.52-.63,1.06-.87,1.63-.23.57-.41,1.16-.54,1.77-.12.6-.18,1.22-.18,1.84s.06,1.23.18,1.83c.13.61.3,1.2.54,1.77.24.57.53,1.11.87,1.63s.73.99,1.17,1.43.91.83,1.43,1.17,1.06.63,1.63.87c.57.23,1.16.42,1.77.54.6.12,1.22.18,1.83.18s1.23-.06,1.84-.18c.61-.12,1.2-.3,1.77-.54.57-.24,1.11-.53,1.63-.87.51-.34.99-.73,1.43-1.17s.83-.91,1.17-1.43c.34-.52.64-1.06.88-1.63.23-.57.41-1.16.53-1.77.13-.6.18-1.22.18-1.83s-.06-1.23-.18-1.84c-.12-.6-.3-1.19-.53-1.77-.24-.57-.53-1.11-.88-1.63-.34-.51-.73-.99-1.17-1.43-.44-.43-.92-.82-1.43-1.17-.52-.34-1.06-.64-1.63-.87-.57-.24-1.16-.42-1.77-.54-.6-.12-1.22-.18-1.84-.18Z"></path>
      <path class="cls-1" d="M193.01,132.39c-1.23,0-2.46-.12-3.67-.36-1.21-.24-2.39-.6-3.54-1.07-1.14-.47-2.22-1.05-3.26-1.74-1.03-.69-1.98-1.47-2.85-2.34-.88-.88-1.66-1.82-2.34-2.85-.69-1.03-1.27-2.11-1.74-3.26-.47-1.14-.83-2.32-1.07-3.53s-.36-2.44-.36-3.67.12-2.46.36-3.68c.24-1.21.6-2.39,1.07-3.53s1.05-2.23,1.74-3.26,1.47-1.98,2.34-2.85c.87-.88,1.82-1.66,2.85-2.34,1.03-.69,2.11-1.27,3.26-1.74,1.15-.47,2.32-.83,3.54-1.07,1.21-.24,2.44-.36,3.67-.36s2.46.12,3.67.36c1.21.24,2.39.6,3.54,1.07,1.14.47,2.22,1.06,3.26,1.74,1.03.68,1.98,1.46,2.85,2.34.87.88,1.65,1.83,2.34,2.85s1.27,2.11,1.74,3.26.83,2.32,1.07,3.53c.24,1.21.36,2.44.36,3.68s-.12,2.46-.36,3.67-.6,2.39-1.07,3.53c-.47,1.15-1.05,2.23-1.74,3.26-.69,1.03-1.47,1.98-2.34,2.85-.88.88-1.83,1.66-2.85,2.34-1.03.69-2.11,1.27-3.26,1.74-1.15.47-2.32.83-3.54,1.07-1.21.24-2.44.36-3.67.36ZM193.01,104.15c-.62,0-1.23.06-1.84.18-.6.12-1.19.3-1.77.54-.57.23-1.11.53-1.63.87-.52.34-.99.73-1.43,1.17-.44.44-.83.92-1.17,1.43-.34.52-.64,1.06-.87,1.63-.24.57-.42,1.16-.54,1.77s-.18,1.22-.18,1.84.06,1.23.18,1.83c.12.61.3,1.2.54,1.77.23.57.53,1.11.87,1.63s.73.99,1.17,1.43.91.83,1.43,1.17c.51.34,1.06.63,1.63.87.57.23,1.16.42,1.77.54.61.12,1.22.18,1.84.18s1.23-.06,1.84-.18c.6-.12,1.19-.3,1.77-.54.57-.24,1.11-.53,1.63-.87.52-.34.99-.73,1.43-1.17s.83-.91,1.17-1.43.64-1.06.87-1.63c.24-.57.42-1.16.54-1.77.12-.6.18-1.22.18-1.83s-.06-1.23-.18-1.84-.3-1.19-.54-1.77c-.23-.57-.53-1.11-.87-1.63-.34-.51-.73-.99-1.17-1.43-.44-.43-.91-.82-1.43-1.17-.51-.34-1.06-.64-1.63-.87-.57-.24-1.16-.42-1.77-.54-.61-.12-1.22-.18-1.84-.18Z"></path>
      <path class="cls-1" d="M240.09,132.39c-1.24,0-2.46-.12-3.68-.36-1.21-.24-2.39-.6-3.53-1.07s-2.23-1.05-3.26-1.74-1.98-1.47-2.85-2.34-1.66-1.82-2.34-2.85c-.68-1.03-1.27-2.11-1.74-3.26-.47-1.14-.83-2.32-1.07-3.53-.24-1.21-.36-2.44-.36-3.67s.12-2.46.36-3.68c.24-1.21.6-2.39,1.07-3.53.47-1.14,1.06-2.23,1.74-3.26.69-1.03,1.47-1.98,2.34-2.85s1.83-1.66,2.85-2.34c1.03-.69,2.11-1.27,3.26-1.74,1.14-.47,2.32-.83,3.53-1.07,1.21-.24,2.44-.36,3.68-.36s2.46.12,3.67.36c1.21.24,2.39.6,3.53,1.07,1.14.47,2.23,1.06,3.26,1.74,1.03.68,1.98,1.46,2.85,2.34s1.66,1.83,2.34,2.85,1.27,2.11,1.74,3.26.83,2.32,1.07,3.53c.24,1.21.36,2.44.36,3.68s-.12,2.46-.36,3.67c-.24,1.21-.6,2.39-1.07,3.53-.47,1.15-1.05,2.23-1.74,3.26-.69,1.03-1.47,1.98-2.34,2.85s-1.82,1.66-2.85,2.34c-1.03.69-2.11,1.27-3.26,1.74s-2.32.83-3.53,1.07c-1.21.24-2.44.36-3.67.36ZM240.09,104.15c-.62,0-1.23.06-1.84.18s-1.2.3-1.77.54c-.57.23-1.11.53-1.63.87-.51.34-.99.73-1.43,1.17-.44.44-.83.92-1.17,1.43-.34.52-.64,1.06-.88,1.63-.23.57-.41,1.16-.53,1.77-.13.6-.18,1.22-.18,1.84s.06,1.23.18,1.83c.12.61.3,1.2.53,1.77.24.57.53,1.11.88,1.63.34.52.73.99,1.17,1.43s.92.83,1.43,1.17c.52.34,1.06.63,1.63.87.57.23,1.16.42,1.77.54s1.22.18,1.84.18,1.23-.06,1.83-.18c.61-.12,1.2-.3,1.77-.54.57-.24,1.11-.53,1.63-.87s.99-.73,1.43-1.17.83-.91,1.17-1.43.63-1.06.87-1.63c.23-.57.41-1.16.54-1.77.12-.6.18-1.22.18-1.83s-.06-1.23-.18-1.84c-.13-.6-.3-1.19-.54-1.77-.24-.57-.53-1.11-.87-1.63-.34-.51-.73-.99-1.17-1.43-.44-.43-.91-.82-1.43-1.17s-1.06-.64-1.63-.87c-.57-.24-1.16-.42-1.77-.54-.6-.12-1.22-.18-1.83-.18Z"></path>
    </g>
  </g>
</svg>