<?xml version="1.0"?>
<svg id="Layer_2" data-name="Layer 2" xmlns="http://www.w3.org/2000/svg" xmlns:xlink="http://www.w3.org/1999/xlink" viewBox="0 0 267.86 186.91">
  <defs>
    
    <clipPath id="clippath">
      <rect class="cls-1" width="267.86" height="186.91"></rect>
    </clipPath>
  </defs>
  <g id="Layer_1-2" data-name="Layer 1">
    <g>
      <path class="cls-2" d="M178.21,75.24l-8.38-1.51c-.91-3.17-2.17-6.21-3.76-9.09l4.85-6.99c.79-1.15.66-2.71-.33-3.71l-10.93-10.93c-.98-.98-2.55-1.13-3.71-.33l-6.99,4.84c-2.88-1.59-5.92-2.85-9.09-3.76l-1.51-8.38c-.24-1.38-1.45-2.39-2.85-2.39h-15.46c-1.4,0-2.6.99-2.85,2.39l-1.51,8.38c-3.17.91-6.21,2.17-9.09,3.76l-6.99-4.84c-1.15-.8-2.71-.67-3.71.33l-10.93,10.93c-.98.98-1.13,2.55-.33,3.71l4.85,6.99c-1.59,2.88-2.85,5.92-3.76,9.09l-8.38,1.51c-1.38.24-2.39,1.45-2.39,2.85v15.46c0,1.41,1,2.6,2.39,2.85l8.38,1.51c.91,3.17,2.17,6.21,3.76,9.09l-4.85,6.99c-.79,1.14-.66,2.7.33,3.7l10.93,10.93c.98,1,2.55,1.13,3.71.33l6.99-4.85c2.88,1.59,5.92,2.85,9.09,3.76l1.51,8.38c.24,1.38,1.45,2.39,2.85,2.39h15.46c1.4,0,2.6-1,2.85-2.39l1.51-8.38c3.17-.91,6.21-2.17,9.09-3.76l6.99,4.85c1.15.8,2.71.67,3.71-.33l10.93-10.93c.98-.98,1.13-2.55.33-3.7l-4.85-6.99c1.59-2.86,2.85-5.92,3.76-9.09l8.38-1.51c1.38-.24,2.39-1.44,2.39-2.85v-15.46c0-1.4-1-2.6-2.39-2.85ZM174.81,91.14l-7.81,1.4c-1.13.2-2.03,1.06-2.3,2.17-.93,3.86-2.45,7.54-4.52,10.91-.61.98-.57,2.22.08,3.17l4.53,6.51-7.51,7.52-6.51-4.53c-.94-.65-2.19-.7-3.17-.09-3.37,2.07-7.05,3.59-10.91,4.52-1.11.28-1.97,1.17-2.17,2.3l-1.4,7.81h-10.63l-1.41-7.81c-.2-1.13-1.05-2.03-2.17-2.3-3.86-.93-7.54-2.45-10.92-4.52-.98-.61-2.21-.56-3.17.09l-6.52,4.53-7.51-7.52,4.53-6.51c.65-.94.69-2.19.09-3.17-2.07-3.37-3.59-7.03-4.52-10.91-.28-1.11-1.17-1.97-2.3-2.17l-7.82-1.4v-10.63l7.82-1.4c1.13-.2,2.03-1.06,2.3-2.17.93-3.86,2.44-7.54,4.52-10.91.6-.98.56-2.21-.09-3.17l-4.53-6.51,7.51-7.51,6.52,4.53c.94.65,2.19.7,3.17.09,3.38-2.07,7.05-3.59,10.92-4.52,1.11-.28,1.97-1.17,2.17-2.3l1.41-7.81h10.63l1.4,7.81c.2,1.13,1.06,2.03,2.17,2.3,3.86.93,7.54,2.45,10.91,4.52.98.59,2.21.56,3.17-.09l6.51-4.53,7.51,7.51-4.53,6.51c-.65.94-.69,2.19-.08,3.17,2.07,3.37,3.59,7.03,4.52,10.91.28,1.11,1.17,1.97,2.3,2.17l7.81,1.4v10.63Z"></path>
      <path class="cls-2" d="M127.82,59.28c-14.64,0-26.55,11.91-26.55,26.54s11.91,26.54,26.55,26.54,26.54-11.91,26.54-26.54-11.91-26.54-26.54-26.54ZM127.82,106.58c-11.45,0-20.76-9.31-20.76-20.76s9.31-20.76,20.76-20.76,20.75,9.31,20.75,20.76-9.3,20.76-20.75,20.76Z"></path>
      <g class="cls-3">
        <path class="cls-2" d="M22.45,186.64h223.44c12.39,0,22.48-10.09,22.48-22.49v-15.88c0-1.59-1.3-2.89-2.9-2.89h-6.47V22.62c0-12.18-9.92-22.1-22.1-22.1H31.43C19.25.52,9.33,10.44,9.33,22.62v122.76H2.86c-1.59,0-2.9,1.3-2.9,2.89v15.88c0,12.4,10.09,22.49,22.48,22.49ZM15.12,22.62c0-8.98,7.32-16.31,16.31-16.31h205.47c8.98,0,16.31,7.32,16.31,16.31v122.76h-10.13V22.62c0-3.4-2.78-6.18-6.18-6.18H31.43c-3.4,0-6.18,2.78-6.18,6.18v122.76h-10.13V22.62ZM168.77,151.17l-3.64,10.22h-61.94l-3.63-10.22h69.21ZM174.1,145.38c-.36-.16-.74-.25-1.15-.25h-77.6c-.41,0-.78.1-1.15.25H31.03V22.62c0-.21.18-.39.39-.39h205.47c.22,0,.39.18.39.39v122.76h-63.19.02ZM5.74,151.17h87.66l5.01,14.08c.41,1.16,1.51,1.92,2.72,1.92h66.02c1.23,0,2.32-.77,2.72-1.92l5.01-14.08h87.66v12.98c0,9.2-7.48,16.7-16.69,16.7H22.45c-9.21,0-16.69-7.49-16.69-16.7v-12.98h-.02Z"></path>
      </g>
    </g>
  </g>
</svg>