<?xml version="1.0"?>
<svg xmlns="http://www.w3.org/2000/svg" xmlns:xlink="http://www.w3.org/1999/xlink" viewBox="0 0 3031 1604.95">
  <defs>
    
    <linearGradient id="Degradado_sin_nombre_17" data-name="Degradado sin nombre 17" x1="-6051.6" y1="1549.95" x2="-6051.6" y2="0" gradientTransform="translate(-4536.1) rotate(-180) scale(1 -1)" gradientUnits="userSpaceOnUse">
      <stop offset=".18" stop-color="#ccedff"></stop>
      <stop offset=".26" stop-color="#a7c9e4"></stop>
      <stop offset=".4" stop-color="#7499bf"></stop>
      <stop offset=".53" stop-color="#4a72a1"></stop>
      <stop offset=".66" stop-color="#2a5389"></stop>
      <stop offset=".78" stop-color="#123c78"></stop>
      <stop offset=".9" stop-color="#042f6e"></stop>
      <stop offset="1" stop-color="#002b6b"></stop>
    </linearGradient>
    <linearGradient id="Degradado_sin_nombre_4" data-name="Degradado sin nombre 4" x1="-6043.6" y1="1604.95" x2="-6043.6" y2="485.36" gradientTransform="translate(-4536.1) rotate(-180) scale(1 -1)" gradientUnits="userSpaceOnUse">
      <stop offset="0" stop-color="#0046b0"></stop>
      <stop offset=".08" stop-color="#2665be"></stop>
      <stop offset=".19" stop-color="#5289cf"></stop>
      <stop offset=".31" stop-color="#77a7de"></stop>
      <stop offset=".42" stop-color="#96c1ea"></stop>
      <stop offset=".55" stop-color="#aed4f3"></stop>
      <stop offset=".68" stop-color="#bee2f9"></stop>
      <stop offset=".82" stop-color="#c8eafd"></stop>
      <stop offset="1" stop-color="#ccedff"></stop>
    </linearGradient>
  </defs>
  <g class="cls-2">
    <g id="Layer_2" data-name="Layer 2">
      <g id="Capa_1" data-name="Capa 1">
        <g class="cls-1">
          <path class="cls-4" d="M20.65,1549.95V301.32H0l1.04-1.6h-.03l2.28-3.53s0-.02,0-.02l14.77-22.92h-.02l2.12-3.3s.02.03.02.03l4.22-6.59h1.27s-.01-.03-.03-.04h3.99s.03.03.03.04h15.43s0-.03,0-.04h4.01s-.01.03-.01.04h12.65s-.03-.03-.03-.04h4.01v.04h15.46s0-.03.02-.04h3.97s0,.03-.03.04h12.66v-.04h3.99s0,.03.02.04h15.43s.01-.03.01-.04h3.97v.04h12.64s0-.03-.02-.04h4s.02.03.02.04h15.41s.02-.03.02-.04h4.02s0,.03-.04.04h12.67s-.02-.03-.02-.04h3.96s.04.03.06.04h15.38s0-.03.02-.04h4s0,.03-.03.04h12.16V104.08h0l-3.08,1.9h-.04l-10.83,6.64-.21-.51h0l-1.53-3.48.02-.03-7.27-17.01,1.24-.81s-.02.01-.04.01l5.75-3.67s0,.03-.01.03l13.06-8.36h0l1.43-.91,6.21-3.99h0l2.79-1.77h0l29.78-19.02,1.44-.95h0l4.3-2.73h0l1.39-.89,19.15-12.24,2.37-1.52h0l8.35-5.35,2.2-1.39h0l28.7-18.36,1.69-1.09h0l7.79-4.97h0l5.57-3.55h0s0,0,0,0l.04-.06.05.14,6.73,4.31,1.71,1.09h0s6.53,4.19,6.53,4.19l1.77,1.1h-.02l29.49,18.86.4.25h0l28.56,18.24,2.09,1.35h0l4.33,2.76h0l.13.11,33.56,21.42.32.21h0l21.2,13.54s-.01-.03-.03-.03l2.68,1.71,3.67,2.36-3.41,7.96h0l-.04.11-3.72,8.72h0l-1.49,3.53h0l-.33.73-11.97-7.32-1.86-1.14v-.02l-.09-.06v159.26h12.35s0-.03-.01-.04h4.02s0,.03.01.04h15.38s.01-.03.01-.04h4.01s-.02.03-.02.04h12.65s-.03-.03-.05-.04h4.02s.02.03.02.04h15.41s.01-.03.01-.04h3.97v.04h12.64s0-.03-.02-.04h4.01s.02.03.04.04h15.36s.04-.03.05-.04h3.97s-.01.03-.01.04h12.63v-.04h3.97s0,.03.03.04h15.4s0-.03.03-.04h3.97s-.03.03-.03.04h12.66s-.01-.03-.04-.04h4.04s0,.03.03.04h15.37s.03-.03.03-.04h4s-.03.03-.03.04h1.16l3.96,6.19v-94.7l-18.83,7.4-12.11-18.21,193.3-79.09h0l.07-.03.06.13,67.51,27.59v-32h-4.88v-15.92h77.82v15.92h-4.89v59.83l57.68,23.6-12.11,18.18-18.85-7.39v83.18h77.45v17.98h-5.56v13.43l65.6-55.27.1-.14.04.04h.03l137.57,115.95v-114.52h-28.03l3.08-4.92h0s1.06-1.73,1.06-1.73l.03.03,1.97-3.18h0l1.17-1.84h0l2.19-3.5v-.02l1.1-1.73h0l4.37-6.96s0,.01-.04.03l5.39-8.6h0l2.5-3.92h5.16v-.03h2.48v.03h8.31v-.03h2.48v.03h9.25s-.02,0-.02-.03h2.48s.02.03.02.03h8.29v-.03h2.51l-.02.03h9.25v-.03h2.49v.03h8.31v-.03h2.48l-.02.03h9.25v-.03h2.46s0,.03.04.03h8.3v-.03h2.48v.03h9.26l-.02-.03h2.47s0,.03.02.03h8.3v-.03h2.5v.03h9.22v-.03h2.51v.03h8.29v-.03h2.46v.03h9.26v-.03h2.47v.03h8.32v-.03h2.47v.03h9.26s-.04,0-.04-.03h2.49v.03h8.33v-.03h2.46v.03h9.25v-.03h2.48s.04.03.04.03h8.28s.01,0,.01-.03h2.48v.03h2.89v-29.05h-4.18v-18.33h85.38v18.33h-4.17v29.05h7.61v-.03h2.48v.03h5.6l4.12,6.55,3.92,6.31h0l4.07,6.43h0s1.06,1.74,1.06,1.74h0l2.1,3.3h0l1.17,1.88s0,.02,0,.02l2.06,3.28h0s1.07,1.71,1.07,1.71v.02l3.21,5.11h-28.01v125.55h13.16s.01-.01.01-.03h4.01s0,.03-.02.03h12.66s-.03-.01-.03-.03h3.98s.01.03.03.03h15.43s0-.01,0-.03h3.98s-.05.03-.05.03h12.68s-.03-.01-.03-.03h3.99s.01.03.02.03h15.39s0-.01.02-.03h4.02s-.02.03-.02.03h12.63s-.02-.01-.02-.03h3.99s.03.03.03.03h15.4s.02-.01.02-.03h3.99s0,.03,0,.03h12.62s0-.01-.03-.03h4.01s.03.03.03.03h15.39s.01-.01.01-.03h4s-.02.03-.02.03h12.37v-159.25l-.11.04h0l-1.96,1.21-11.86,7.27-.66-1.54-1.16-2.7v-.03l-3.03-7.12-.75-1.71h0s-3.39-7.93-3.39-7.93l1.54-.98s-.03.02-.05.02l4.85-3.12s-.03.01-.04.03l13.64-8.7v-.03l2.98-1.87h0l4.58-2.93h0l1.79-1.15,113.79-72.76.08-.13.04.06h.02l5.55,3.55h0l2.76,1.79h0l4.99,3.2h.04l3.21,2.07,8.84,5.65h0s6.34,4.05,6.34,4.05l12.01,7.68h0l2.74,1.74h-.01l7.81,5.01h.01l7.22,4.62,12.46,7.97h0l3.19,2.05h0l4.29,2.73h0l2.76,1.78h0l37,23.65,1.89,1.21h0s13.1,8.36,13.1,8.36t-.03-.01l5.74,3.68s0-.02,0-.02l1.19.77-3.92,9.26-.82,1.98h0l-4.2,9.82-13.97-8.53v159.3h12.16s-.02-.01-.04-.03h4s.02.03.02.03h15.4s.05-.01.05-.03h3.96s0,.03,0,.03h12.66s-.03-.01-.03-.03h4s.03.03.03.03h15.4v-.03h4.04s-.02.03-.04.03h12.66s-.03-.01-.03-.03h3.97s.03.03.03.03h15.43v-.03h4s-.02.03-.02.03h12.67s-.02-.01-.02-.03h4s0,.03.03.03h15.42s0-.01,0-.03h4s0,.03-.01.03h12.65s-.03-.01-.03-.03h3.99s.04.03.04.03h15.41s.01-.01.04-.03h3.98s-.04.03-.04.03h1.28l3.8,5.91v-33.78h-28.04l3.23-5.11h0l1.08-1.73h0l2.04-3.24v-.03l1.18-1.86h0l2.11-3.31h-.04s1.09-1.74,1.09-1.74h0l4.06-6.47h0l5.27-8.38h0l2.79-4.45h15.66v-29.08h-4.15v-18.32h85.37v18.32h-4.16v29.08h16.17-.01,90.08-.03,89.99v-24.28l-18.83,7.38-12.09-18.19,57.62-23.58v-59.86h-4.86v-15.91h77.8v15.91h-4.88v32.01l67.52-27.62.08-.13.02.04h.03l193.3,79.1-12.13,18.19-18.83-7.4v173.99l136.14-114.73.02-.03v.03l.03-.06.1.15,65.6,55.28v-13.42h-5.55v-18h88.04v18h-5.54v78.29l30,25.31-13.69,20.55-21.29-18.25v1070.12l-2975.36.17Z"></path>
          <path class="cls-3" d="M39.42,1044.31s-.03.05-.03.06h19.56s0-.03-.02-.06h6.19s0,.05.02.06h23.82s.03-.03.03-.06h6.2s-.05.05-.05.06h19.61s-.04-.03-.05-.06h6.16s.03.05.03.06h23.82s0-.03.05-.06h6.18s-.04.05-.04.06h18.78v-246.64l-21.59,13.24-6.48-15.21-1.3-3.06-6.05-14.31,1.85-1.21h-.03l8.89-5.67s-.03.03-.06.03l20.29-12.95-.04-.02,2.9-1.84,57.26-36.63,4.24-2.73,6.64-4.23,4.94-3.18,19.27-12.32,11.19-7.17,12.05-7.73,4.23-2.71,18.58-11.88,9.79-6.28s0,.01-.02.01l13.72-8.78,4.96-3.18,7.76-4.95,4.25-2.75,8.61-5.49v-.03h.01l.04-.07.13.24,175.89,112.61,2.82,1.76s0,.03-.03.03l7.09,4.52,4.62,2.94h-.02l21.07,13.51s-.03-.03-.06-.06l7.51,4.8s-.03,0-.05-.01l2.35,1.52-5.22,12.31h0l-1.15,2.64-4.68,11.03h0s-1.8,4.23-1.8,4.23l-1.03,2.39-18.35-11.28-3.03-1.83h.02l-.19-.11v246.56h19.14s-.03-.03-.03-.06h6.18s.03.05.05.06h23.78s.01-.03.01-.06h6.22s-.02.05-.04.06h19.54s-.03-.03-.04-.06h6.21s.01.05.01.06h23.82s0-.03.04-.06h6.16s-.02.05-.02.06h19.55s-.04-.03-.04-.06h6.19s0,.05.03.06h23.77s.04-.03.08-.06h6.13s0,.05-.03.06h19.56s-.03-.03-.04-.06h6.16s.03.05.03.06h23.8s.06-.03.07-.06h6.14s-.01.05-.03.06h19.56s-.01-.03-.03-.06h6.22s.02.05.02.06h20.36v-194.39h-43.34l4.95-7.93h0s1.71-2.67,1.71-2.67h0s3.15-5.07,3.15-5.07c0,0,0-.01-.01-.03l1.83-2.88,3.22-5.13h0s1.67-2.71,1.67-2.71l6.26-9.98-.02.03,6.11-9.73,6.36-10.17h8.64v-.02h3.87s.02,0,.02.02h11.7v-44.97h-6.43v-28.39h131.98v28.39h-6.44v44.97h4.47v-.02h3.85s0,0,0,.02h12.83l.03-.02h3.82v.02h14.31v-.02h3.81v.02h12.85v-.02h3.84l-.02.02h14.34v-.02h3.78v.02h12.86v-.02h3.83v.02h14.29v-.02h3.86v.02h12.82v-.02h3.84v.02s14.28,0,14.28,0v-.02h3.85s0,0,0,.02h12.84s0-.02,0-.02h3.82v.02h14.33s0-.02-.03-.02h3.81v.02h12.87s.03-.02.03-.02h3.82v.02h14.3s0-.02-.02-.02h3.84s.01,0,.03.02h12.83v-.02h3.83v.02h14.3v-.02h3.85v.02h12.83s.01-.02.01-.02h3.86s-.03,0-.03.02h14.3v-.02h3.84v.02h12.86v-.02h3.8v.02h7.99l3.82,6.08,8.37,13.3s-.03,0-.05,0l6.73,10.73h0l1.7,2.7h0s3.39,5.42,3.39,5.42l1.81,2.87h-.02s3.06,4.89,3.06,4.89h.02s1.66,2.64,1.66,2.64l4.75,7.62h-43.32v177.32l212.7-179.5.03-.03v.03l.09-.09.15.23,101.41,85.59v-20.82h-8.59v-27.88h119.72v-128.72l-29.15,11.43-18.69-28.15,89.14-36.52v-92.63h-7.57v-24.66h120.34v24.66h-7.58v49.54l104.42-42.76.1-.18.07.04h.03s298.87,122.47,298.87,122.47l-18.74,28.17-29.09-11.45v146.6l6.1-9.55h1.8s-.02-.04-.05-.05h6.2s.03.04.03.05h23.78s.02-.04.06-.05h6.19s-.03.04-.03.05h19.55s-.03-.04-.05-.05h6.15s.05.04.07.05h23.8s.03-.04.07-.05h6.13s-.02.04-.04.05h19.55s-.03-.04-.03-.05h6.14s.04.04.06.05h23.78s.02-.04.03-.05h6.21s-.02.04-.05.05h19.54s0-.04,0-.05h6.16s.01.04.03.05h23.81s.03-.04.03-.05h6.19s-.04.04-.04.05h19.54s-.02-.04-.04-.05h6.2s.02.04.02.05h23.76s.05-.04.05-.05h6.2s-.02.04-.03.05h19.09v-246.58l-.14.12h.02l-2.91,1.76-18.5,11.36-.49-1.16-2.33-5.44-5.74-13.49-.07-.18-5.26-12.33,5.72-3.65,4.11-2.66s-.03.05-.08.06l32.79-20.98.5-.33,51.87-33.18.19-.14,6.69-4.27,3.25-2.08,44.13-28.25.64-.39,45.6-29.18h0l2.71-1.74,10.09-6.45h0s2.64-1.7,2.64-1.7l10.39-6.66.12-.22.07.05h0v.03l8.6,5.49,12.01,7.7,2.63,1.69,44.39,28.41,3.38,2.18,12.92,8.29h.02l3.66,2.34,29.6,18.95,2.14,1.37,6.62,4.25,2.28,1.44,46,29.46,4.34,2.77,9.61,6.14,2.18,1.4h-.03l20.25,12.95s-.04-.02-.04-.03l8.88,5.69s-.04-.03-.06-.03l1.91,1.23-11.22,26.35h.03l-2.33,5.44-.32.79-16.8-10.31-4.79-2.92v246.63h18.78s-.02-.04-.03-.05h6.15s.03.04.05.05h23.84s.04-.04.04-.05h6.15s0,.04-.04.05h19.58s-.04-.04-.04-.05h6.23v.05h23.82s.03-.04.03-.05h6.18s-.04.04-.04.05h19.56s-.02-.04-.02-.05h6.17s.03.04.03.05h9.32v711.85l-2944.72-.14v-560.5h4.28Z"></path>
        </g>
      </g>
    </g>
  </g>
</svg>